<svg xmlns="http://www.w3.org/2000/svg" width="148mm" height="210mm" viewBox="0 0 148 210">
  <rect width="148" height="210" fill="#140e0b"/>
  <rect x="6" y="6" width="136" height="198" rx="5" fill="none" stroke="#d98324" stroke-width="0.6" opacity="0.5"/>

  <text x="74" y="26" text-anchor="middle" font-family="Georgia, serif" font-size="9" font-weight="bold" fill="#f7f0e8">Restaurante La Viña</text>
  <text x="74" y="38" text-anchor="middle" font-family="Helvetica, Arial, sans-serif" font-size="6.5" fill="#d98324" letter-spacing="1.6">GRUPOS Y CELEBRACIONES</text>

  <rect x="29" y="52" width="90" height="90" rx="6" fill="#ffffff"/><path d="M36.35 59.35h1.84v1.84h-1.84zM38.18 59.35h1.84v1.84h-1.84zM40.02 59.35h1.84v1.84h-1.84zM41.86 59.35h1.84v1.84h-1.84zM43.69 59.35h1.84v1.84h-1.84zM45.53 59.35h1.84v1.84h-1.84zM47.37 59.35h1.84v1.84h-1.84zM54.71 59.35h1.84v1.84h-1.84zM58.39 59.35h1.84v1.84h-1.84zM60.22 59.35h1.84v1.84h-1.84zM62.06 59.35h1.84v1.84h-1.84zM65.73 59.35h1.84v1.84h-1.84zM67.57 59.35h1.84v1.84h-1.84zM69.41 59.35h1.84v1.84h-1.84zM76.76 59.35h1.84v1.84h-1.84zM80.43 59.35h1.84v1.84h-1.84zM82.27 59.35h1.84v1.84h-1.84zM84.10 59.35h1.84v1.84h-1.84zM89.61 59.35h1.84v1.84h-1.84zM91.45 59.35h1.84v1.84h-1.84zM98.80 59.35h1.84v1.84h-1.84zM100.63 59.35h1.84v1.84h-1.84zM102.47 59.35h1.84v1.84h-1.84zM104.31 59.35h1.84v1.84h-1.84zM106.14 59.35h1.84v1.84h-1.84zM107.98 59.35h1.84v1.84h-1.84zM109.82 59.35h1.84v1.84h-1.84zM36.35 61.18h1.84v1.84h-1.84zM47.37 61.18h1.84v1.84h-1.84zM51.04 61.18h1.84v1.84h-1.84zM56.55 61.18h1.84v1.84h-1.84zM60.22 61.18h1.84v1.84h-1.84zM62.06 61.18h1.84v1.84h-1.84zM69.41 61.18h1.84v1.84h-1.84zM71.24 61.18h1.84v1.84h-1.84zM73.08 61.18h1.84v1.84h-1.84zM74.92 61.18h1.84v1.84h-1.84zM76.76 61.18h1.84v1.84h-1.84zM80.43 61.18h1.84v1.84h-1.84zM84.10 61.18h1.84v1.84h-1.84zM87.78 61.18h1.84v1.84h-1.84zM89.61 61.18h1.84v1.84h-1.84zM93.29 61.18h1.84v1.84h-1.84zM98.80 61.18h1.84v1.84h-1.84zM109.82 61.18h1.84v1.84h-1.84zM36.35 63.02h1.84v1.84h-1.84zM40.02 63.02h1.84v1.84h-1.84zM41.86 63.02h1.84v1.84h-1.84zM43.69 63.02h1.84v1.84h-1.84zM47.37 63.02h1.84v1.84h-1.84zM52.88 63.02h1.84v1.84h-1.84zM54.71 63.02h1.84v1.84h-1.84zM56.55 63.02h1.84v1.84h-1.84zM60.22 63.02h1.84v1.84h-1.84zM62.06 63.02h1.84v1.84h-1.84zM63.90 63.02h1.84v1.84h-1.84zM67.57 63.02h1.84v1.84h-1.84zM69.41 63.02h1.84v1.84h-1.84zM71.24 63.02h1.84v1.84h-1.84zM73.08 63.02h1.84v1.84h-1.84zM76.76 63.02h1.84v1.84h-1.84zM80.43 63.02h1.84v1.84h-1.84zM82.27 63.02h1.84v1.84h-1.84zM84.10 63.02h1.84v1.84h-1.84zM93.29 63.02h1.84v1.84h-1.84zM95.12 63.02h1.84v1.84h-1.84zM98.80 63.02h1.84v1.84h-1.84zM102.47 63.02h1.84v1.84h-1.84zM104.31 63.02h1.84v1.84h-1.84zM106.14 63.02h1.84v1.84h-1.84zM109.82 63.02h1.84v1.84h-1.84zM36.35 64.86h1.84v1.84h-1.84zM40.02 64.86h1.84v1.84h-1.84zM41.86 64.86h1.84v1.84h-1.84zM43.69 64.86h1.84v1.84h-1.84zM47.37 64.86h1.84v1.84h-1.84zM51.04 64.86h1.84v1.84h-1.84zM54.71 64.86h1.84v1.84h-1.84zM56.55 64.86h1.84v1.84h-1.84zM60.22 64.86h1.84v1.84h-1.84zM62.06 64.86h1.84v1.84h-1.84zM71.24 64.86h1.84v1.84h-1.84zM74.92 64.86h1.84v1.84h-1.84zM84.10 64.86h1.84v1.84h-1.84zM85.94 64.86h1.84v1.84h-1.84zM89.61 64.86h1.84v1.84h-1.84zM95.12 64.86h1.84v1.84h-1.84zM98.80 64.86h1.84v1.84h-1.84zM102.47 64.86h1.84v1.84h-1.84zM104.31 64.86h1.84v1.84h-1.84zM106.14 64.86h1.84v1.84h-1.84zM109.82 64.86h1.84v1.84h-1.84zM36.35 66.69h1.84v1.84h-1.84zM40.02 66.69h1.84v1.84h-1.84zM41.86 66.69h1.84v1.84h-1.84zM43.69 66.69h1.84v1.84h-1.84zM47.37 66.69h1.84v1.84h-1.84zM51.04 66.69h1.84v1.84h-1.84zM52.88 66.69h1.84v1.84h-1.84zM54.71 66.69h1.84v1.84h-1.84zM56.55 66.69h1.84v1.84h-1.84zM58.39 66.69h1.84v1.84h-1.84zM62.06 66.69h1.84v1.84h-1.84zM67.57 66.69h1.84v1.84h-1.84zM69.41 66.69h1.84v1.84h-1.84zM71.24 66.69h1.84v1.84h-1.84zM73.08 66.69h1.84v1.84h-1.84zM74.92 66.69h1.84v1.84h-1.84zM76.76 66.69h1.84v1.84h-1.84zM78.59 66.69h1.84v1.84h-1.84zM80.43 66.69h1.84v1.84h-1.84zM82.27 66.69h1.84v1.84h-1.84zM84.10 66.69h1.84v1.84h-1.84zM87.78 66.69h1.84v1.84h-1.84zM89.61 66.69h1.84v1.84h-1.84zM93.29 66.69h1.84v1.84h-1.84zM98.80 66.69h1.84v1.84h-1.84zM102.47 66.69h1.84v1.84h-1.84zM104.31 66.69h1.84v1.84h-1.84zM106.14 66.69h1.84v1.84h-1.84zM109.82 66.69h1.84v1.84h-1.84zM36.35 68.53h1.84v1.84h-1.84zM47.37 68.53h1.84v1.84h-1.84zM54.71 68.53h1.84v1.84h-1.84zM62.06 68.53h1.84v1.84h-1.84zM63.90 68.53h1.84v1.84h-1.84zM65.73 68.53h1.84v1.84h-1.84zM71.24 68.53h1.84v1.84h-1.84zM73.08 68.53h1.84v1.84h-1.84zM74.92 68.53h1.84v1.84h-1.84zM78.59 68.53h1.84v1.84h-1.84zM84.10 68.53h1.84v1.84h-1.84zM87.78 68.53h1.84v1.84h-1.84zM89.61 68.53h1.84v1.84h-1.84zM91.45 68.53h1.84v1.84h-1.84zM95.12 68.53h1.84v1.84h-1.84zM98.80 68.53h1.84v1.84h-1.84zM109.82 68.53h1.84v1.84h-1.84zM36.35 70.37h1.84v1.84h-1.84zM38.18 70.37h1.84v1.84h-1.84zM40.02 70.37h1.84v1.84h-1.84zM41.86 70.37h1.84v1.84h-1.84zM43.69 70.37h1.84v1.84h-1.84zM45.53 70.37h1.84v1.84h-1.84zM47.37 70.37h1.84v1.84h-1.84zM51.04 70.37h1.84v1.84h-1.84zM54.71 70.37h1.84v1.84h-1.84zM58.39 70.37h1.84v1.84h-1.84zM62.06 70.37h1.84v1.84h-1.84zM65.73 70.37h1.84v1.84h-1.84zM69.41 70.37h1.84v1.84h-1.84zM73.08 70.37h1.84v1.84h-1.84zM76.76 70.37h1.84v1.84h-1.84zM80.43 70.37h1.84v1.84h-1.84zM84.10 70.37h1.84v1.84h-1.84zM87.78 70.37h1.84v1.84h-1.84zM91.45 70.37h1.84v1.84h-1.84zM95.12 70.37h1.84v1.84h-1.84zM98.80 70.37h1.84v1.84h-1.84zM100.63 70.37h1.84v1.84h-1.84zM102.47 70.37h1.84v1.84h-1.84zM104.31 70.37h1.84v1.84h-1.84zM106.14 70.37h1.84v1.84h-1.84zM107.98 70.37h1.84v1.84h-1.84zM109.82 70.37h1.84v1.84h-1.84zM51.04 72.20h1.84v1.84h-1.84zM52.88 72.20h1.84v1.84h-1.84zM58.39 72.20h1.84v1.84h-1.84zM60.22 72.20h1.84v1.84h-1.84zM62.06 72.20h1.84v1.84h-1.84zM63.90 72.20h1.84v1.84h-1.84zM67.57 72.20h1.84v1.84h-1.84zM69.41 72.20h1.84v1.84h-1.84zM76.76 72.20h1.84v1.84h-1.84zM80.43 72.20h1.84v1.84h-1.84zM82.27 72.20h1.84v1.84h-1.84zM91.45 72.20h1.84v1.84h-1.84zM95.12 72.20h1.84v1.84h-1.84zM38.18 74.04h1.84v1.84h-1.84zM41.86 74.04h1.84v1.84h-1.84zM43.69 74.04h1.84v1.84h-1.84zM45.53 74.04h1.84v1.84h-1.84zM47.37 74.04h1.84v1.84h-1.84zM51.04 74.04h1.84v1.84h-1.84zM60.22 74.04h1.84v1.84h-1.84zM62.06 74.04h1.84v1.84h-1.84zM63.90 74.04h1.84v1.84h-1.84zM69.41 74.04h1.84v1.84h-1.84zM71.24 74.04h1.84v1.84h-1.84zM78.59 74.04h1.84v1.84h-1.84zM84.10 74.04h1.84v1.84h-1.84zM85.94 74.04h1.84v1.84h-1.84zM87.78 74.04h1.84v1.84h-1.84zM89.61 74.04h1.84v1.84h-1.84zM93.29 74.04h1.84v1.84h-1.84zM95.12 74.04h1.84v1.84h-1.84zM96.96 74.04h1.84v1.84h-1.84zM98.80 74.04h1.84v1.84h-1.84zM102.47 74.04h1.84v1.84h-1.84zM104.31 74.04h1.84v1.84h-1.84zM107.98 74.04h1.84v1.84h-1.84zM38.18 75.88h1.84v1.84h-1.84zM45.53 75.88h1.84v1.84h-1.84zM49.20 75.88h1.84v1.84h-1.84zM51.04 75.88h1.84v1.84h-1.84zM56.55 75.88h1.84v1.84h-1.84zM58.39 75.88h1.84v1.84h-1.84zM60.22 75.88h1.84v1.84h-1.84zM62.06 75.88h1.84v1.84h-1.84zM65.73 75.88h1.84v1.84h-1.84zM69.41 75.88h1.84v1.84h-1.84zM71.24 75.88h1.84v1.84h-1.84zM73.08 75.88h1.84v1.84h-1.84zM76.76 75.88h1.84v1.84h-1.84zM80.43 75.88h1.84v1.84h-1.84zM84.10 75.88h1.84v1.84h-1.84zM85.94 75.88h1.84v1.84h-1.84zM87.78 75.88h1.84v1.84h-1.84zM93.29 75.88h1.84v1.84h-1.84zM100.63 75.88h1.84v1.84h-1.84zM102.47 75.88h1.84v1.84h-1.84zM107.98 75.88h1.84v1.84h-1.84zM36.35 77.71h1.84v1.84h-1.84zM38.18 77.71h1.84v1.84h-1.84zM40.02 77.71h1.84v1.84h-1.84zM45.53 77.71h1.84v1.84h-1.84zM47.37 77.71h1.84v1.84h-1.84zM51.04 77.71h1.84v1.84h-1.84zM54.71 77.71h1.84v1.84h-1.84zM60.22 77.71h1.84v1.84h-1.84zM62.06 77.71h1.84v1.84h-1.84zM63.90 77.71h1.84v1.84h-1.84zM65.73 77.71h1.84v1.84h-1.84zM69.41 77.71h1.84v1.84h-1.84zM80.43 77.71h1.84v1.84h-1.84zM84.10 77.71h1.84v1.84h-1.84zM85.94 77.71h1.84v1.84h-1.84zM87.78 77.71h1.84v1.84h-1.84zM89.61 77.71h1.84v1.84h-1.84zM98.80 77.71h1.84v1.84h-1.84zM100.63 77.71h1.84v1.84h-1.84zM106.14 77.71h1.84v1.84h-1.84zM107.98 77.71h1.84v1.84h-1.84zM43.69 79.55h1.84v1.84h-1.84zM52.88 79.55h1.84v1.84h-1.84zM56.55 79.55h1.84v1.84h-1.84zM60.22 79.55h1.84v1.84h-1.84zM62.06 79.55h1.84v1.84h-1.84zM63.90 79.55h1.84v1.84h-1.84zM71.24 79.55h1.84v1.84h-1.84zM73.08 79.55h1.84v1.84h-1.84zM74.92 79.55h1.84v1.84h-1.84zM76.76 79.55h1.84v1.84h-1.84zM80.43 79.55h1.84v1.84h-1.84zM85.94 79.55h1.84v1.84h-1.84zM89.61 79.55h1.84v1.84h-1.84zM93.29 79.55h1.84v1.84h-1.84zM95.12 79.55h1.84v1.84h-1.84zM96.96 79.55h1.84v1.84h-1.84zM98.80 79.55h1.84v1.84h-1.84zM104.31 79.55h1.84v1.84h-1.84zM107.98 79.55h1.84v1.84h-1.84zM38.18 81.39h1.84v1.84h-1.84zM47.37 81.39h1.84v1.84h-1.84zM54.71 81.39h1.84v1.84h-1.84zM58.39 81.39h1.84v1.84h-1.84zM73.08 81.39h1.84v1.84h-1.84zM74.92 81.39h1.84v1.84h-1.84zM76.76 81.39h1.84v1.84h-1.84zM78.59 81.39h1.84v1.84h-1.84zM84.10 81.39h1.84v1.84h-1.84zM95.12 81.39h1.84v1.84h-1.84zM98.80 81.39h1.84v1.84h-1.84zM107.98 81.39h1.84v1.84h-1.84zM109.82 81.39h1.84v1.84h-1.84zM38.18 83.22h1.84v1.84h-1.84zM41.86 83.22h1.84v1.84h-1.84zM43.69 83.22h1.84v1.84h-1.84zM52.88 83.22h1.84v1.84h-1.84zM58.39 83.22h1.84v1.84h-1.84zM60.22 83.22h1.84v1.84h-1.84zM73.08 83.22h1.84v1.84h-1.84zM74.92 83.22h1.84v1.84h-1.84zM80.43 83.22h1.84v1.84h-1.84zM82.27 83.22h1.84v1.84h-1.84zM84.10 83.22h1.84v1.84h-1.84zM85.94 83.22h1.84v1.84h-1.84zM87.78 83.22h1.84v1.84h-1.84zM89.61 83.22h1.84v1.84h-1.84zM91.45 83.22h1.84v1.84h-1.84zM98.80 83.22h1.84v1.84h-1.84zM100.63 83.22h1.84v1.84h-1.84zM102.47 83.22h1.84v1.84h-1.84zM109.82 83.22h1.84v1.84h-1.84zM36.35 85.06h1.84v1.84h-1.84zM43.69 85.06h1.84v1.84h-1.84zM47.37 85.06h1.84v1.84h-1.84zM51.04 85.06h1.84v1.84h-1.84zM54.71 85.06h1.84v1.84h-1.84zM58.39 85.06h1.84v1.84h-1.84zM60.22 85.06h1.84v1.84h-1.84zM62.06 85.06h1.84v1.84h-1.84zM63.90 85.06h1.84v1.84h-1.84zM71.24 85.06h1.84v1.84h-1.84zM73.08 85.06h1.84v1.84h-1.84zM74.92 85.06h1.84v1.84h-1.84zM84.10 85.06h1.84v1.84h-1.84zM85.94 85.06h1.84v1.84h-1.84zM89.61 85.06h1.84v1.84h-1.84zM93.29 85.06h1.84v1.84h-1.84zM95.12 85.06h1.84v1.84h-1.84zM96.96 85.06h1.84v1.84h-1.84zM98.80 85.06h1.84v1.84h-1.84zM107.98 85.06h1.84v1.84h-1.84zM109.82 85.06h1.84v1.84h-1.84zM40.02 86.90h1.84v1.84h-1.84zM43.69 86.90h1.84v1.84h-1.84zM49.20 86.90h1.84v1.84h-1.84zM52.88 86.90h1.84v1.84h-1.84zM56.55 86.90h1.84v1.84h-1.84zM58.39 86.90h1.84v1.84h-1.84zM63.90 86.90h1.84v1.84h-1.84zM67.57 86.90h1.84v1.84h-1.84zM69.41 86.90h1.84v1.84h-1.84zM71.24 86.90h1.84v1.84h-1.84zM74.92 86.90h1.84v1.84h-1.84zM76.76 86.90h1.84v1.84h-1.84zM80.43 86.90h1.84v1.84h-1.84zM85.94 86.90h1.84v1.84h-1.84zM91.45 86.90h1.84v1.84h-1.84zM96.96 86.90h1.84v1.84h-1.84zM100.63 86.90h1.84v1.84h-1.84zM104.31 86.90h1.84v1.84h-1.84zM106.14 86.90h1.84v1.84h-1.84zM107.98 86.90h1.84v1.84h-1.84zM109.82 86.90h1.84v1.84h-1.84zM36.35 88.73h1.84v1.84h-1.84zM38.18 88.73h1.84v1.84h-1.84zM40.02 88.73h1.84v1.84h-1.84zM41.86 88.73h1.84v1.84h-1.84zM45.53 88.73h1.84v1.84h-1.84zM47.37 88.73h1.84v1.84h-1.84zM49.20 88.73h1.84v1.84h-1.84zM56.55 88.73h1.84v1.84h-1.84zM63.90 88.73h1.84v1.84h-1.84zM67.57 88.73h1.84v1.84h-1.84zM69.41 88.73h1.84v1.84h-1.84zM71.24 88.73h1.84v1.84h-1.84zM74.92 88.73h1.84v1.84h-1.84zM76.76 88.73h1.84v1.84h-1.84zM78.59 88.73h1.84v1.84h-1.84zM80.43 88.73h1.84v1.84h-1.84zM82.27 88.73h1.84v1.84h-1.84zM93.29 88.73h1.84v1.84h-1.84zM95.12 88.73h1.84v1.84h-1.84zM96.96 88.73h1.84v1.84h-1.84zM107.98 88.73h1.84v1.84h-1.84zM36.35 90.57h1.84v1.84h-1.84zM38.18 90.57h1.84v1.84h-1.84zM43.69 90.57h1.84v1.84h-1.84zM49.20 90.57h1.84v1.84h-1.84zM52.88 90.57h1.84v1.84h-1.84zM62.06 90.57h1.84v1.84h-1.84zM65.73 90.57h1.84v1.84h-1.84zM67.57 90.57h1.84v1.84h-1.84zM69.41 90.57h1.84v1.84h-1.84zM71.24 90.57h1.84v1.84h-1.84zM76.76 90.57h1.84v1.84h-1.84zM82.27 90.57h1.84v1.84h-1.84zM84.10 90.57h1.84v1.84h-1.84zM85.94 90.57h1.84v1.84h-1.84zM87.78 90.57h1.84v1.84h-1.84zM89.61 90.57h1.84v1.84h-1.84zM91.45 90.57h1.84v1.84h-1.84zM93.29 90.57h1.84v1.84h-1.84zM95.12 90.57h1.84v1.84h-1.84zM96.96 90.57h1.84v1.84h-1.84zM102.47 90.57h1.84v1.84h-1.84zM104.31 90.57h1.84v1.84h-1.84zM106.14 90.57h1.84v1.84h-1.84zM36.35 92.41h1.84v1.84h-1.84zM40.02 92.41h1.84v1.84h-1.84zM41.86 92.41h1.84v1.84h-1.84zM45.53 92.41h1.84v1.84h-1.84zM47.37 92.41h1.84v1.84h-1.84zM49.20 92.41h1.84v1.84h-1.84zM58.39 92.41h1.84v1.84h-1.84zM62.06 92.41h1.84v1.84h-1.84zM63.90 92.41h1.84v1.84h-1.84zM65.73 92.41h1.84v1.84h-1.84zM73.08 92.41h1.84v1.84h-1.84zM76.76 92.41h1.84v1.84h-1.84zM78.59 92.41h1.84v1.84h-1.84zM80.43 92.41h1.84v1.84h-1.84zM85.94 92.41h1.84v1.84h-1.84zM91.45 92.41h1.84v1.84h-1.84zM93.29 92.41h1.84v1.84h-1.84zM98.80 92.41h1.84v1.84h-1.84zM100.63 92.41h1.84v1.84h-1.84zM102.47 92.41h1.84v1.84h-1.84zM106.14 92.41h1.84v1.84h-1.84zM107.98 92.41h1.84v1.84h-1.84zM109.82 92.41h1.84v1.84h-1.84zM36.35 94.24h1.84v1.84h-1.84zM38.18 94.24h1.84v1.84h-1.84zM40.02 94.24h1.84v1.84h-1.84zM43.69 94.24h1.84v1.84h-1.84zM45.53 94.24h1.84v1.84h-1.84zM56.55 94.24h1.84v1.84h-1.84zM63.90 94.24h1.84v1.84h-1.84zM69.41 94.24h1.84v1.84h-1.84zM73.08 94.24h1.84v1.84h-1.84zM74.92 94.24h1.84v1.84h-1.84zM76.76 94.24h1.84v1.84h-1.84zM80.43 94.24h1.84v1.84h-1.84zM84.10 94.24h1.84v1.84h-1.84zM91.45 94.24h1.84v1.84h-1.84zM95.12 94.24h1.84v1.84h-1.84zM98.80 94.24h1.84v1.84h-1.84zM102.47 94.24h1.84v1.84h-1.84zM106.14 94.24h1.84v1.84h-1.84zM36.35 96.08h1.84v1.84h-1.84zM40.02 96.08h1.84v1.84h-1.84zM41.86 96.08h1.84v1.84h-1.84zM43.69 96.08h1.84v1.84h-1.84zM47.37 96.08h1.84v1.84h-1.84zM52.88 96.08h1.84v1.84h-1.84zM54.71 96.08h1.84v1.84h-1.84zM56.55 96.08h1.84v1.84h-1.84zM58.39 96.08h1.84v1.84h-1.84zM60.22 96.08h1.84v1.84h-1.84zM62.06 96.08h1.84v1.84h-1.84zM65.73 96.08h1.84v1.84h-1.84zM71.24 96.08h1.84v1.84h-1.84zM74.92 96.08h1.84v1.84h-1.84zM80.43 96.08h1.84v1.84h-1.84zM82.27 96.08h1.84v1.84h-1.84zM84.10 96.08h1.84v1.84h-1.84zM85.94 96.08h1.84v1.84h-1.84zM89.61 96.08h1.84v1.84h-1.84zM93.29 96.08h1.84v1.84h-1.84zM98.80 96.08h1.84v1.84h-1.84zM100.63 96.08h1.84v1.84h-1.84zM106.14 96.08h1.84v1.84h-1.84zM36.35 97.92h1.84v1.84h-1.84zM38.18 97.92h1.84v1.84h-1.84zM49.20 97.92h1.84v1.84h-1.84zM51.04 97.92h1.84v1.84h-1.84zM60.22 97.92h1.84v1.84h-1.84zM65.73 97.92h1.84v1.84h-1.84zM67.57 97.92h1.84v1.84h-1.84zM69.41 97.92h1.84v1.84h-1.84zM74.92 97.92h1.84v1.84h-1.84zM78.59 97.92h1.84v1.84h-1.84zM82.27 97.92h1.84v1.84h-1.84zM84.10 97.92h1.84v1.84h-1.84zM85.94 97.92h1.84v1.84h-1.84zM93.29 97.92h1.84v1.84h-1.84zM102.47 97.92h1.84v1.84h-1.84zM104.31 97.92h1.84v1.84h-1.84zM38.18 99.76h1.84v1.84h-1.84zM41.86 99.76h1.84v1.84h-1.84zM43.69 99.76h1.84v1.84h-1.84zM47.37 99.76h1.84v1.84h-1.84zM52.88 99.76h1.84v1.84h-1.84zM58.39 99.76h1.84v1.84h-1.84zM63.90 99.76h1.84v1.84h-1.84zM65.73 99.76h1.84v1.84h-1.84zM67.57 99.76h1.84v1.84h-1.84zM73.08 99.76h1.84v1.84h-1.84zM74.92 99.76h1.84v1.84h-1.84zM78.59 99.76h1.84v1.84h-1.84zM85.94 99.76h1.84v1.84h-1.84zM87.78 99.76h1.84v1.84h-1.84zM89.61 99.76h1.84v1.84h-1.84zM95.12 99.76h1.84v1.84h-1.84zM96.96 99.76h1.84v1.84h-1.84zM100.63 99.76h1.84v1.84h-1.84zM104.31 99.76h1.84v1.84h-1.84zM41.86 101.59h1.84v1.84h-1.84zM43.69 101.59h1.84v1.84h-1.84zM51.04 101.59h1.84v1.84h-1.84zM52.88 101.59h1.84v1.84h-1.84zM54.71 101.59h1.84v1.84h-1.84zM58.39 101.59h1.84v1.84h-1.84zM60.22 101.59h1.84v1.84h-1.84zM62.06 101.59h1.84v1.84h-1.84zM65.73 101.59h1.84v1.84h-1.84zM67.57 101.59h1.84v1.84h-1.84zM69.41 101.59h1.84v1.84h-1.84zM73.08 101.59h1.84v1.84h-1.84zM87.78 101.59h1.84v1.84h-1.84zM89.61 101.59h1.84v1.84h-1.84zM93.29 101.59h1.84v1.84h-1.84zM96.96 101.59h1.84v1.84h-1.84zM98.80 101.59h1.84v1.84h-1.84zM100.63 101.59h1.84v1.84h-1.84zM102.47 101.59h1.84v1.84h-1.84zM104.31 101.59h1.84v1.84h-1.84zM41.86 103.43h1.84v1.84h-1.84zM47.37 103.43h1.84v1.84h-1.84zM52.88 103.43h1.84v1.84h-1.84zM54.71 103.43h1.84v1.84h-1.84zM58.39 103.43h1.84v1.84h-1.84zM60.22 103.43h1.84v1.84h-1.84zM62.06 103.43h1.84v1.84h-1.84zM73.08 103.43h1.84v1.84h-1.84zM76.76 103.43h1.84v1.84h-1.84zM80.43 103.43h1.84v1.84h-1.84zM85.94 103.43h1.84v1.84h-1.84zM87.78 103.43h1.84v1.84h-1.84zM93.29 103.43h1.84v1.84h-1.84zM95.12 103.43h1.84v1.84h-1.84zM96.96 103.43h1.84v1.84h-1.84zM98.80 103.43h1.84v1.84h-1.84zM100.63 103.43h1.84v1.84h-1.84zM109.82 103.43h1.84v1.84h-1.84zM43.69 105.27h1.84v1.84h-1.84zM45.53 105.27h1.84v1.84h-1.84zM54.71 105.27h1.84v1.84h-1.84zM56.55 105.27h1.84v1.84h-1.84zM58.39 105.27h1.84v1.84h-1.84zM60.22 105.27h1.84v1.84h-1.84zM62.06 105.27h1.84v1.84h-1.84zM73.08 105.27h1.84v1.84h-1.84zM78.59 105.27h1.84v1.84h-1.84zM84.10 105.27h1.84v1.84h-1.84zM85.94 105.27h1.84v1.84h-1.84zM87.78 105.27h1.84v1.84h-1.84zM89.61 105.27h1.84v1.84h-1.84zM91.45 105.27h1.84v1.84h-1.84zM95.12 105.27h1.84v1.84h-1.84zM98.80 105.27h1.84v1.84h-1.84zM100.63 105.27h1.84v1.84h-1.84zM102.47 105.27h1.84v1.84h-1.84zM106.14 105.27h1.84v1.84h-1.84zM107.98 105.27h1.84v1.84h-1.84zM109.82 105.27h1.84v1.84h-1.84zM38.18 107.10h1.84v1.84h-1.84zM40.02 107.10h1.84v1.84h-1.84zM43.69 107.10h1.84v1.84h-1.84zM45.53 107.10h1.84v1.84h-1.84zM47.37 107.10h1.84v1.84h-1.84zM49.20 107.10h1.84v1.84h-1.84zM51.04 107.10h1.84v1.84h-1.84zM52.88 107.10h1.84v1.84h-1.84zM54.71 107.10h1.84v1.84h-1.84zM58.39 107.10h1.84v1.84h-1.84zM65.73 107.10h1.84v1.84h-1.84zM67.57 107.10h1.84v1.84h-1.84zM69.41 107.10h1.84v1.84h-1.84zM84.10 107.10h1.84v1.84h-1.84zM85.94 107.10h1.84v1.84h-1.84zM93.29 107.10h1.84v1.84h-1.84zM95.12 107.10h1.84v1.84h-1.84zM100.63 107.10h1.84v1.84h-1.84zM102.47 107.10h1.84v1.84h-1.84zM104.31 107.10h1.84v1.84h-1.84zM109.82 107.10h1.84v1.84h-1.84zM40.02 108.94h1.84v1.84h-1.84zM41.86 108.94h1.84v1.84h-1.84zM43.69 108.94h1.84v1.84h-1.84zM45.53 108.94h1.84v1.84h-1.84zM49.20 108.94h1.84v1.84h-1.84zM54.71 108.94h1.84v1.84h-1.84zM58.39 108.94h1.84v1.84h-1.84zM60.22 108.94h1.84v1.84h-1.84zM71.24 108.94h1.84v1.84h-1.84zM74.92 108.94h1.84v1.84h-1.84zM76.76 108.94h1.84v1.84h-1.84zM78.59 108.94h1.84v1.84h-1.84zM80.43 108.94h1.84v1.84h-1.84zM85.94 108.94h1.84v1.84h-1.84zM87.78 108.94h1.84v1.84h-1.84zM91.45 108.94h1.84v1.84h-1.84zM93.29 108.94h1.84v1.84h-1.84zM98.80 108.94h1.84v1.84h-1.84zM104.31 108.94h1.84v1.84h-1.84zM106.14 108.94h1.84v1.84h-1.84zM107.98 108.94h1.84v1.84h-1.84zM41.86 110.78h1.84v1.84h-1.84zM43.69 110.78h1.84v1.84h-1.84zM45.53 110.78h1.84v1.84h-1.84zM47.37 110.78h1.84v1.84h-1.84zM49.20 110.78h1.84v1.84h-1.84zM51.04 110.78h1.84v1.84h-1.84zM52.88 110.78h1.84v1.84h-1.84zM54.71 110.78h1.84v1.84h-1.84zM58.39 110.78h1.84v1.84h-1.84zM63.90 110.78h1.84v1.84h-1.84zM67.57 110.78h1.84v1.84h-1.84zM69.41 110.78h1.84v1.84h-1.84zM73.08 110.78h1.84v1.84h-1.84zM78.59 110.78h1.84v1.84h-1.84zM80.43 110.78h1.84v1.84h-1.84zM82.27 110.78h1.84v1.84h-1.84zM85.94 110.78h1.84v1.84h-1.84zM91.45 110.78h1.84v1.84h-1.84zM93.29 110.78h1.84v1.84h-1.84zM95.12 110.78h1.84v1.84h-1.84zM100.63 110.78h1.84v1.84h-1.84zM104.31 110.78h1.84v1.84h-1.84zM109.82 110.78h1.84v1.84h-1.84zM36.35 112.61h1.84v1.84h-1.84zM51.04 112.61h1.84v1.84h-1.84zM54.71 112.61h1.84v1.84h-1.84zM58.39 112.61h1.84v1.84h-1.84zM63.90 112.61h1.84v1.84h-1.84zM65.73 112.61h1.84v1.84h-1.84zM73.08 112.61h1.84v1.84h-1.84zM74.92 112.61h1.84v1.84h-1.84zM78.59 112.61h1.84v1.84h-1.84zM85.94 112.61h1.84v1.84h-1.84zM89.61 112.61h1.84v1.84h-1.84zM91.45 112.61h1.84v1.84h-1.84zM93.29 112.61h1.84v1.84h-1.84zM96.96 112.61h1.84v1.84h-1.84zM100.63 112.61h1.84v1.84h-1.84zM102.47 112.61h1.84v1.84h-1.84zM36.35 114.45h1.84v1.84h-1.84zM38.18 114.45h1.84v1.84h-1.84zM41.86 114.45h1.84v1.84h-1.84zM47.37 114.45h1.84v1.84h-1.84zM49.20 114.45h1.84v1.84h-1.84zM51.04 114.45h1.84v1.84h-1.84zM54.71 114.45h1.84v1.84h-1.84zM56.55 114.45h1.84v1.84h-1.84zM58.39 114.45h1.84v1.84h-1.84zM63.90 114.45h1.84v1.84h-1.84zM65.73 114.45h1.84v1.84h-1.84zM69.41 114.45h1.84v1.84h-1.84zM76.76 114.45h1.84v1.84h-1.84zM80.43 114.45h1.84v1.84h-1.84zM84.10 114.45h1.84v1.84h-1.84zM85.94 114.45h1.84v1.84h-1.84zM87.78 114.45h1.84v1.84h-1.84zM89.61 114.45h1.84v1.84h-1.84zM93.29 114.45h1.84v1.84h-1.84zM95.12 114.45h1.84v1.84h-1.84zM96.96 114.45h1.84v1.84h-1.84zM102.47 114.45h1.84v1.84h-1.84zM106.14 114.45h1.84v1.84h-1.84zM109.82 114.45h1.84v1.84h-1.84zM36.35 116.29h1.84v1.84h-1.84zM38.18 116.29h1.84v1.84h-1.84zM40.02 116.29h1.84v1.84h-1.84zM43.69 116.29h1.84v1.84h-1.84zM49.20 116.29h1.84v1.84h-1.84zM54.71 116.29h1.84v1.84h-1.84zM60.22 116.29h1.84v1.84h-1.84zM71.24 116.29h1.84v1.84h-1.84zM74.92 116.29h1.84v1.84h-1.84zM78.59 116.29h1.84v1.84h-1.84zM82.27 116.29h1.84v1.84h-1.84zM84.10 116.29h1.84v1.84h-1.84zM98.80 116.29h1.84v1.84h-1.84zM106.14 116.29h1.84v1.84h-1.84zM36.35 118.12h1.84v1.84h-1.84zM38.18 118.12h1.84v1.84h-1.84zM41.86 118.12h1.84v1.84h-1.84zM45.53 118.12h1.84v1.84h-1.84zM47.37 118.12h1.84v1.84h-1.84zM49.20 118.12h1.84v1.84h-1.84zM52.88 118.12h1.84v1.84h-1.84zM58.39 118.12h1.84v1.84h-1.84zM60.22 118.12h1.84v1.84h-1.84zM63.90 118.12h1.84v1.84h-1.84zM65.73 118.12h1.84v1.84h-1.84zM67.57 118.12h1.84v1.84h-1.84zM69.41 118.12h1.84v1.84h-1.84zM73.08 118.12h1.84v1.84h-1.84zM76.76 118.12h1.84v1.84h-1.84zM78.59 118.12h1.84v1.84h-1.84zM84.10 118.12h1.84v1.84h-1.84zM85.94 118.12h1.84v1.84h-1.84zM87.78 118.12h1.84v1.84h-1.84zM89.61 118.12h1.84v1.84h-1.84zM93.29 118.12h1.84v1.84h-1.84zM95.12 118.12h1.84v1.84h-1.84zM96.96 118.12h1.84v1.84h-1.84zM98.80 118.12h1.84v1.84h-1.84zM100.63 118.12h1.84v1.84h-1.84zM102.47 118.12h1.84v1.84h-1.84zM104.31 118.12h1.84v1.84h-1.84zM106.14 118.12h1.84v1.84h-1.84zM51.04 119.96h1.84v1.84h-1.84zM52.88 119.96h1.84v1.84h-1.84zM58.39 119.96h1.84v1.84h-1.84zM60.22 119.96h1.84v1.84h-1.84zM62.06 119.96h1.84v1.84h-1.84zM65.73 119.96h1.84v1.84h-1.84zM67.57 119.96h1.84v1.84h-1.84zM69.41 119.96h1.84v1.84h-1.84zM73.08 119.96h1.84v1.84h-1.84zM76.76 119.96h1.84v1.84h-1.84zM78.59 119.96h1.84v1.84h-1.84zM85.94 119.96h1.84v1.84h-1.84zM95.12 119.96h1.84v1.84h-1.84zM102.47 119.96h1.84v1.84h-1.84zM104.31 119.96h1.84v1.84h-1.84zM106.14 119.96h1.84v1.84h-1.84zM36.35 121.80h1.84v1.84h-1.84zM38.18 121.80h1.84v1.84h-1.84zM40.02 121.80h1.84v1.84h-1.84zM41.86 121.80h1.84v1.84h-1.84zM43.69 121.80h1.84v1.84h-1.84zM45.53 121.80h1.84v1.84h-1.84zM47.37 121.80h1.84v1.84h-1.84zM52.88 121.80h1.84v1.84h-1.84zM56.55 121.80h1.84v1.84h-1.84zM60.22 121.80h1.84v1.84h-1.84zM62.06 121.80h1.84v1.84h-1.84zM65.73 121.80h1.84v1.84h-1.84zM67.57 121.80h1.84v1.84h-1.84zM69.41 121.80h1.84v1.84h-1.84zM73.08 121.80h1.84v1.84h-1.84zM78.59 121.80h1.84v1.84h-1.84zM84.10 121.80h1.84v1.84h-1.84zM85.94 121.80h1.84v1.84h-1.84zM89.61 121.80h1.84v1.84h-1.84zM93.29 121.80h1.84v1.84h-1.84zM95.12 121.80h1.84v1.84h-1.84zM98.80 121.80h1.84v1.84h-1.84zM102.47 121.80h1.84v1.84h-1.84zM36.35 123.63h1.84v1.84h-1.84zM47.37 123.63h1.84v1.84h-1.84zM51.04 123.63h1.84v1.84h-1.84zM54.71 123.63h1.84v1.84h-1.84zM56.55 123.63h1.84v1.84h-1.84zM60.22 123.63h1.84v1.84h-1.84zM65.73 123.63h1.84v1.84h-1.84zM67.57 123.63h1.84v1.84h-1.84zM74.92 123.63h1.84v1.84h-1.84zM76.76 123.63h1.84v1.84h-1.84zM78.59 123.63h1.84v1.84h-1.84zM84.10 123.63h1.84v1.84h-1.84zM85.94 123.63h1.84v1.84h-1.84zM87.78 123.63h1.84v1.84h-1.84zM89.61 123.63h1.84v1.84h-1.84zM93.29 123.63h1.84v1.84h-1.84zM95.12 123.63h1.84v1.84h-1.84zM102.47 123.63h1.84v1.84h-1.84zM104.31 123.63h1.84v1.84h-1.84zM107.98 123.63h1.84v1.84h-1.84zM109.82 123.63h1.84v1.84h-1.84zM36.35 125.47h1.84v1.84h-1.84zM40.02 125.47h1.84v1.84h-1.84zM41.86 125.47h1.84v1.84h-1.84zM43.69 125.47h1.84v1.84h-1.84zM47.37 125.47h1.84v1.84h-1.84zM51.04 125.47h1.84v1.84h-1.84zM52.88 125.47h1.84v1.84h-1.84zM54.71 125.47h1.84v1.84h-1.84zM56.55 125.47h1.84v1.84h-1.84zM60.22 125.47h1.84v1.84h-1.84zM67.57 125.47h1.84v1.84h-1.84zM76.76 125.47h1.84v1.84h-1.84zM78.59 125.47h1.84v1.84h-1.84zM80.43 125.47h1.84v1.84h-1.84zM82.27 125.47h1.84v1.84h-1.84zM84.10 125.47h1.84v1.84h-1.84zM85.94 125.47h1.84v1.84h-1.84zM87.78 125.47h1.84v1.84h-1.84zM93.29 125.47h1.84v1.84h-1.84zM95.12 125.47h1.84v1.84h-1.84zM96.96 125.47h1.84v1.84h-1.84zM98.80 125.47h1.84v1.84h-1.84zM100.63 125.47h1.84v1.84h-1.84zM102.47 125.47h1.84v1.84h-1.84zM104.31 125.47h1.84v1.84h-1.84zM107.98 125.47h1.84v1.84h-1.84zM109.82 125.47h1.84v1.84h-1.84zM36.35 127.31h1.84v1.84h-1.84zM40.02 127.31h1.84v1.84h-1.84zM41.86 127.31h1.84v1.84h-1.84zM43.69 127.31h1.84v1.84h-1.84zM47.37 127.31h1.84v1.84h-1.84zM51.04 127.31h1.84v1.84h-1.84zM56.55 127.31h1.84v1.84h-1.84zM58.39 127.31h1.84v1.84h-1.84zM60.22 127.31h1.84v1.84h-1.84zM62.06 127.31h1.84v1.84h-1.84zM63.90 127.31h1.84v1.84h-1.84zM65.73 127.31h1.84v1.84h-1.84zM74.92 127.31h1.84v1.84h-1.84zM78.59 127.31h1.84v1.84h-1.84zM80.43 127.31h1.84v1.84h-1.84zM85.94 127.31h1.84v1.84h-1.84zM87.78 127.31h1.84v1.84h-1.84zM89.61 127.31h1.84v1.84h-1.84zM95.12 127.31h1.84v1.84h-1.84zM100.63 127.31h1.84v1.84h-1.84zM104.31 127.31h1.84v1.84h-1.84zM106.14 127.31h1.84v1.84h-1.84zM36.35 129.14h1.84v1.84h-1.84zM40.02 129.14h1.84v1.84h-1.84zM41.86 129.14h1.84v1.84h-1.84zM43.69 129.14h1.84v1.84h-1.84zM47.37 129.14h1.84v1.84h-1.84zM54.71 129.14h1.84v1.84h-1.84zM58.39 129.14h1.84v1.84h-1.84zM60.22 129.14h1.84v1.84h-1.84zM63.90 129.14h1.84v1.84h-1.84zM67.57 129.14h1.84v1.84h-1.84zM69.41 129.14h1.84v1.84h-1.84zM73.08 129.14h1.84v1.84h-1.84zM80.43 129.14h1.84v1.84h-1.84zM84.10 129.14h1.84v1.84h-1.84zM85.94 129.14h1.84v1.84h-1.84zM87.78 129.14h1.84v1.84h-1.84zM95.12 129.14h1.84v1.84h-1.84zM96.96 129.14h1.84v1.84h-1.84zM100.63 129.14h1.84v1.84h-1.84zM102.47 129.14h1.84v1.84h-1.84zM109.82 129.14h1.84v1.84h-1.84zM36.35 130.98h1.84v1.84h-1.84zM47.37 130.98h1.84v1.84h-1.84zM51.04 130.98h1.84v1.84h-1.84zM54.71 130.98h1.84v1.84h-1.84zM62.06 130.98h1.84v1.84h-1.84zM78.59 130.98h1.84v1.84h-1.84zM80.43 130.98h1.84v1.84h-1.84zM85.94 130.98h1.84v1.84h-1.84zM91.45 130.98h1.84v1.84h-1.84zM93.29 130.98h1.84v1.84h-1.84zM96.96 130.98h1.84v1.84h-1.84zM98.80 130.98h1.84v1.84h-1.84zM102.47 130.98h1.84v1.84h-1.84zM104.31 130.98h1.84v1.84h-1.84zM106.14 130.98h1.84v1.84h-1.84zM109.82 130.98h1.84v1.84h-1.84zM36.35 132.82h1.84v1.84h-1.84zM38.18 132.82h1.84v1.84h-1.84zM40.02 132.82h1.84v1.84h-1.84zM41.86 132.82h1.84v1.84h-1.84zM43.69 132.82h1.84v1.84h-1.84zM45.53 132.82h1.84v1.84h-1.84zM47.37 132.82h1.84v1.84h-1.84zM52.88 132.82h1.84v1.84h-1.84zM58.39 132.82h1.84v1.84h-1.84zM67.57 132.82h1.84v1.84h-1.84zM73.08 132.82h1.84v1.84h-1.84zM74.92 132.82h1.84v1.84h-1.84zM76.76 132.82h1.84v1.84h-1.84zM78.59 132.82h1.84v1.84h-1.84zM80.43 132.82h1.84v1.84h-1.84zM82.27 132.82h1.84v1.84h-1.84zM87.78 132.82h1.84v1.84h-1.84zM93.29 132.82h1.84v1.84h-1.84zM95.12 132.82h1.84v1.84h-1.84zM102.47 132.82h1.84v1.84h-1.84zM104.31 132.82h1.84v1.84h-1.84z" fill="#000000"/>

  <text x="74" y="160" text-anchor="middle" font-family="Helvetica, Arial, sans-serif" font-size="7.5" font-weight="bold" fill="#f7f0e8">¿Celebras algo? Cuéntanos</text>
  <text x="74" y="171" text-anchor="middle" font-family="Helvetica, Arial, sans-serif" font-size="5" fill="#f7f0e8" opacity="0.65">Apunta con la cámara del móvil. No hace falta instalar nada.</text>
  <text x="74" y="190" text-anchor="middle" font-family="Helvetica, Arial, sans-serif" font-size="4.6" fill="#f7f0e8" opacity="0.5">La Viña, 1 · 33615 Cenera, Mieres (Asturias)</text>
</svg>