<svg xmlns="http://www.w3.org/2000/svg" width="70mm" height="90mm" viewBox="0 0 70 90">
  <rect width="70" height="90" rx="4" fill="#171012"/>
  <text x="35" y="12" text-anchor="middle" font-family="Georgia, serif" font-size="5.4" font-weight="bold" fill="#f7efe6">La Taberna · The White Bar</text>
  <text x="35" y="19" text-anchor="middle" font-family="Helvetica, Arial, sans-serif" font-size="3.4" fill="#d99a3f" letter-spacing="1">TU OPINIÓN</text>
  <rect x="12.5" y="24" width="45" height="45" rx="6" fill="#ffffff"/><path d="M16.17 27.67h0.92v0.92h-0.92zM17.09 27.67h0.92v0.92h-0.92zM18.01 27.67h0.92v0.92h-0.92zM18.93 27.67h0.92v0.92h-0.92zM19.85 27.67h0.92v0.92h-0.92zM20.77 27.67h0.92v0.92h-0.92zM21.68 27.67h0.92v0.92h-0.92zM23.52 27.67h0.92v0.92h-0.92zM25.36 27.67h0.92v0.92h-0.92zM29.03 27.67h0.92v0.92h-0.92zM29.95 27.67h0.92v0.92h-0.92zM31.79 27.67h0.92v0.92h-0.92zM32.70 27.67h0.92v0.92h-0.92zM33.62 27.67h0.92v0.92h-0.92zM40.97 27.67h0.92v0.92h-0.92zM42.81 27.67h0.92v0.92h-0.92zM43.72 27.67h0.92v0.92h-0.92zM44.64 27.67h0.92v0.92h-0.92zM47.40 27.67h0.92v0.92h-0.92zM48.32 27.67h0.92v0.92h-0.92zM49.23 27.67h0.92v0.92h-0.92zM50.15 27.67h0.92v0.92h-0.92zM51.07 27.67h0.92v0.92h-0.92zM51.99 27.67h0.92v0.92h-0.92zM52.91 27.67h0.92v0.92h-0.92zM16.17 28.59h0.92v0.92h-0.92zM21.68 28.59h0.92v0.92h-0.92zM23.52 28.59h0.92v0.92h-0.92zM24.44 28.59h0.92v0.92h-0.92zM25.36 28.59h0.92v0.92h-0.92zM26.28 28.59h0.92v0.92h-0.92zM27.19 28.59h0.92v0.92h-0.92zM32.70 28.59h0.92v0.92h-0.92zM36.38 28.59h0.92v0.92h-0.92zM39.13 28.59h0.92v0.92h-0.92zM40.97 28.59h0.92v0.92h-0.92zM41.89 28.59h0.92v0.92h-0.92zM43.72 28.59h0.92v0.92h-0.92zM44.64 28.59h0.92v0.92h-0.92zM45.56 28.59h0.92v0.92h-0.92zM47.40 28.59h0.92v0.92h-0.92zM52.91 28.59h0.92v0.92h-0.92zM16.17 29.51h0.92v0.92h-0.92zM18.01 29.51h0.92v0.92h-0.92zM18.93 29.51h0.92v0.92h-0.92zM19.85 29.51h0.92v0.92h-0.92zM21.68 29.51h0.92v0.92h-0.92zM23.52 29.51h0.92v0.92h-0.92zM25.36 29.51h0.92v0.92h-0.92zM27.19 29.51h0.92v0.92h-0.92zM32.70 29.51h0.92v0.92h-0.92zM33.62 29.51h0.92v0.92h-0.92zM35.46 29.51h0.92v0.92h-0.92zM36.38 29.51h0.92v0.92h-0.92zM37.30 29.51h0.92v0.92h-0.92zM40.97 29.51h0.92v0.92h-0.92zM42.81 29.51h0.92v0.92h-0.92zM43.72 29.51h0.92v0.92h-0.92zM45.56 29.51h0.92v0.92h-0.92zM47.40 29.51h0.92v0.92h-0.92zM49.23 29.51h0.92v0.92h-0.92zM50.15 29.51h0.92v0.92h-0.92zM51.07 29.51h0.92v0.92h-0.92zM52.91 29.51h0.92v0.92h-0.92zM16.17 30.43h0.92v0.92h-0.92zM18.01 30.43h0.92v0.92h-0.92zM18.93 30.43h0.92v0.92h-0.92zM19.85 30.43h0.92v0.92h-0.92zM21.68 30.43h0.92v0.92h-0.92zM23.52 30.43h0.92v0.92h-0.92zM24.44 30.43h0.92v0.92h-0.92zM26.28 30.43h0.92v0.92h-0.92zM27.19 30.43h0.92v0.92h-0.92zM28.11 30.43h0.92v0.92h-0.92zM29.03 30.43h0.92v0.92h-0.92zM29.95 30.43h0.92v0.92h-0.92zM30.87 30.43h0.92v0.92h-0.92zM31.79 30.43h0.92v0.92h-0.92zM33.62 30.43h0.92v0.92h-0.92zM34.54 30.43h0.92v0.92h-0.92zM35.46 30.43h0.92v0.92h-0.92zM36.38 30.43h0.92v0.92h-0.92zM38.21 30.43h0.92v0.92h-0.92zM39.13 30.43h0.92v0.92h-0.92zM42.81 30.43h0.92v0.92h-0.92zM43.72 30.43h0.92v0.92h-0.92zM45.56 30.43h0.92v0.92h-0.92zM47.40 30.43h0.92v0.92h-0.92zM49.23 30.43h0.92v0.92h-0.92zM50.15 30.43h0.92v0.92h-0.92zM51.07 30.43h0.92v0.92h-0.92zM52.91 30.43h0.92v0.92h-0.92zM16.17 31.35h0.92v0.92h-0.92zM18.01 31.35h0.92v0.92h-0.92zM18.93 31.35h0.92v0.92h-0.92zM19.85 31.35h0.92v0.92h-0.92zM21.68 31.35h0.92v0.92h-0.92zM23.52 31.35h0.92v0.92h-0.92zM26.28 31.35h0.92v0.92h-0.92zM27.19 31.35h0.92v0.92h-0.92zM29.03 31.35h0.92v0.92h-0.92zM29.95 31.35h0.92v0.92h-0.92zM31.79 31.35h0.92v0.92h-0.92zM32.70 31.35h0.92v0.92h-0.92zM33.62 31.35h0.92v0.92h-0.92zM34.54 31.35h0.92v0.92h-0.92zM35.46 31.35h0.92v0.92h-0.92zM37.30 31.35h0.92v0.92h-0.92zM38.21 31.35h0.92v0.92h-0.92zM39.13 31.35h0.92v0.92h-0.92zM40.97 31.35h0.92v0.92h-0.92zM43.72 31.35h0.92v0.92h-0.92zM44.64 31.35h0.92v0.92h-0.92zM47.40 31.35h0.92v0.92h-0.92zM49.23 31.35h0.92v0.92h-0.92zM50.15 31.35h0.92v0.92h-0.92zM51.07 31.35h0.92v0.92h-0.92zM52.91 31.35h0.92v0.92h-0.92zM16.17 32.27h0.92v0.92h-0.92zM21.68 32.27h0.92v0.92h-0.92zM26.28 32.27h0.92v0.92h-0.92zM27.19 32.27h0.92v0.92h-0.92zM28.11 32.27h0.92v0.92h-0.92zM33.62 32.27h0.92v0.92h-0.92zM34.54 32.27h0.92v0.92h-0.92zM35.46 32.27h0.92v0.92h-0.92zM39.13 32.27h0.92v0.92h-0.92zM40.05 32.27h0.92v0.92h-0.92zM40.97 32.27h0.92v0.92h-0.92zM41.89 32.27h0.92v0.92h-0.92zM42.81 32.27h0.92v0.92h-0.92zM44.64 32.27h0.92v0.92h-0.92zM45.56 32.27h0.92v0.92h-0.92zM47.40 32.27h0.92v0.92h-0.92zM52.91 32.27h0.92v0.92h-0.92zM16.17 33.18h0.92v0.92h-0.92zM17.09 33.18h0.92v0.92h-0.92zM18.01 33.18h0.92v0.92h-0.92zM18.93 33.18h0.92v0.92h-0.92zM19.85 33.18h0.92v0.92h-0.92zM20.77 33.18h0.92v0.92h-0.92zM21.68 33.18h0.92v0.92h-0.92zM23.52 33.18h0.92v0.92h-0.92zM25.36 33.18h0.92v0.92h-0.92zM27.19 33.18h0.92v0.92h-0.92zM29.03 33.18h0.92v0.92h-0.92zM30.87 33.18h0.92v0.92h-0.92zM32.70 33.18h0.92v0.92h-0.92zM34.54 33.18h0.92v0.92h-0.92zM36.38 33.18h0.92v0.92h-0.92zM38.21 33.18h0.92v0.92h-0.92zM40.05 33.18h0.92v0.92h-0.92zM41.89 33.18h0.92v0.92h-0.92zM43.72 33.18h0.92v0.92h-0.92zM45.56 33.18h0.92v0.92h-0.92zM47.40 33.18h0.92v0.92h-0.92zM48.32 33.18h0.92v0.92h-0.92zM49.23 33.18h0.92v0.92h-0.92zM50.15 33.18h0.92v0.92h-0.92zM51.07 33.18h0.92v0.92h-0.92zM51.99 33.18h0.92v0.92h-0.92zM52.91 33.18h0.92v0.92h-0.92zM23.52 34.10h0.92v0.92h-0.92zM25.36 34.10h0.92v0.92h-0.92zM26.28 34.10h0.92v0.92h-0.92zM27.19 34.10h0.92v0.92h-0.92zM28.11 34.10h0.92v0.92h-0.92zM31.79 34.10h0.92v0.92h-0.92zM33.62 34.10h0.92v0.92h-0.92zM35.46 34.10h0.92v0.92h-0.92zM39.13 34.10h0.92v0.92h-0.92zM40.97 34.10h0.92v0.92h-0.92zM41.89 34.10h0.92v0.92h-0.92zM42.81 34.10h0.92v0.92h-0.92zM44.64 34.10h0.92v0.92h-0.92zM45.56 34.10h0.92v0.92h-0.92zM17.09 35.02h0.92v0.92h-0.92zM18.01 35.02h0.92v0.92h-0.92zM19.85 35.02h0.92v0.92h-0.92zM21.68 35.02h0.92v0.92h-0.92zM22.60 35.02h0.92v0.92h-0.92zM25.36 35.02h0.92v0.92h-0.92zM28.11 35.02h0.92v0.92h-0.92zM29.95 35.02h0.92v0.92h-0.92zM31.79 35.02h0.92v0.92h-0.92zM32.70 35.02h0.92v0.92h-0.92zM34.54 35.02h0.92v0.92h-0.92zM35.46 35.02h0.92v0.92h-0.92zM37.30 35.02h0.92v0.92h-0.92zM38.21 35.02h0.92v0.92h-0.92zM39.13 35.02h0.92v0.92h-0.92zM41.89 35.02h0.92v0.92h-0.92zM42.81 35.02h0.92v0.92h-0.92zM47.40 35.02h0.92v0.92h-0.92zM49.23 35.02h0.92v0.92h-0.92zM50.15 35.02h0.92v0.92h-0.92zM51.07 35.02h0.92v0.92h-0.92zM51.99 35.02h0.92v0.92h-0.92zM52.91 35.02h0.92v0.92h-0.92zM16.17 35.94h0.92v0.92h-0.92zM17.09 35.94h0.92v0.92h-0.92zM18.01 35.94h0.92v0.92h-0.92zM18.93 35.94h0.92v0.92h-0.92zM19.85 35.94h0.92v0.92h-0.92zM20.77 35.94h0.92v0.92h-0.92zM24.44 35.94h0.92v0.92h-0.92zM27.19 35.94h0.92v0.92h-0.92zM28.11 35.94h0.92v0.92h-0.92zM29.95 35.94h0.92v0.92h-0.92zM30.87 35.94h0.92v0.92h-0.92zM32.70 35.94h0.92v0.92h-0.92zM33.62 35.94h0.92v0.92h-0.92zM35.46 35.94h0.92v0.92h-0.92zM38.21 35.94h0.92v0.92h-0.92zM39.13 35.94h0.92v0.92h-0.92zM41.89 35.94h0.92v0.92h-0.92zM42.81 35.94h0.92v0.92h-0.92zM43.72 35.94h0.92v0.92h-0.92zM45.56 35.94h0.92v0.92h-0.92zM46.48 35.94h0.92v0.92h-0.92zM47.40 35.94h0.92v0.92h-0.92zM48.32 35.94h0.92v0.92h-0.92zM50.15 35.94h0.92v0.92h-0.92zM51.07 35.94h0.92v0.92h-0.92zM51.99 35.94h0.92v0.92h-0.92zM52.91 35.94h0.92v0.92h-0.92zM21.68 36.86h0.92v0.92h-0.92zM26.28 36.86h0.92v0.92h-0.92zM28.11 36.86h0.92v0.92h-0.92zM29.03 36.86h0.92v0.92h-0.92zM29.95 36.86h0.92v0.92h-0.92zM32.70 36.86h0.92v0.92h-0.92zM35.46 36.86h0.92v0.92h-0.92zM38.21 36.86h0.92v0.92h-0.92zM39.13 36.86h0.92v0.92h-0.92zM40.05 36.86h0.92v0.92h-0.92zM42.81 36.86h0.92v0.92h-0.92zM47.40 36.86h0.92v0.92h-0.92zM48.32 36.86h0.92v0.92h-0.92zM51.07 36.86h0.92v0.92h-0.92zM52.91 36.86h0.92v0.92h-0.92zM16.17 37.78h0.92v0.92h-0.92zM17.09 37.78h0.92v0.92h-0.92zM18.01 37.78h0.92v0.92h-0.92zM23.52 37.78h0.92v0.92h-0.92zM29.03 37.78h0.92v0.92h-0.92zM31.79 37.78h0.92v0.92h-0.92zM33.62 37.78h0.92v0.92h-0.92zM36.38 37.78h0.92v0.92h-0.92zM37.30 37.78h0.92v0.92h-0.92zM38.21 37.78h0.92v0.92h-0.92zM39.13 37.78h0.92v0.92h-0.92zM41.89 37.78h0.92v0.92h-0.92zM42.81 37.78h0.92v0.92h-0.92zM43.72 37.78h0.92v0.92h-0.92zM45.56 37.78h0.92v0.92h-0.92zM47.40 37.78h0.92v0.92h-0.92zM48.32 37.78h0.92v0.92h-0.92zM51.99 37.78h0.92v0.92h-0.92zM52.91 37.78h0.92v0.92h-0.92zM17.09 38.69h0.92v0.92h-0.92zM18.93 38.69h0.92v0.92h-0.92zM19.85 38.69h0.92v0.92h-0.92zM20.77 38.69h0.92v0.92h-0.92zM21.68 38.69h0.92v0.92h-0.92zM24.44 38.69h0.92v0.92h-0.92zM25.36 38.69h0.92v0.92h-0.92zM26.28 38.69h0.92v0.92h-0.92zM27.19 38.69h0.92v0.92h-0.92zM30.87 38.69h0.92v0.92h-0.92zM31.79 38.69h0.92v0.92h-0.92zM32.70 38.69h0.92v0.92h-0.92zM36.38 38.69h0.92v0.92h-0.92zM37.30 38.69h0.92v0.92h-0.92zM39.13 38.69h0.92v0.92h-0.92zM40.97 38.69h0.92v0.92h-0.92zM41.89 38.69h0.92v0.92h-0.92zM42.81 38.69h0.92v0.92h-0.92zM44.64 38.69h0.92v0.92h-0.92zM45.56 38.69h0.92v0.92h-0.92zM46.48 38.69h0.92v0.92h-0.92zM47.40 38.69h0.92v0.92h-0.92zM50.15 38.69h0.92v0.92h-0.92zM52.91 38.69h0.92v0.92h-0.92zM16.17 39.61h0.92v0.92h-0.92zM17.09 39.61h0.92v0.92h-0.92zM19.85 39.61h0.92v0.92h-0.92zM20.77 39.61h0.92v0.92h-0.92zM23.52 39.61h0.92v0.92h-0.92zM24.44 39.61h0.92v0.92h-0.92zM25.36 39.61h0.92v0.92h-0.92zM26.28 39.61h0.92v0.92h-0.92zM28.11 39.61h0.92v0.92h-0.92zM31.79 39.61h0.92v0.92h-0.92zM35.46 39.61h0.92v0.92h-0.92zM36.38 39.61h0.92v0.92h-0.92zM37.30 39.61h0.92v0.92h-0.92zM39.13 39.61h0.92v0.92h-0.92zM40.97 39.61h0.92v0.92h-0.92zM41.89 39.61h0.92v0.92h-0.92zM44.64 39.61h0.92v0.92h-0.92zM46.48 39.61h0.92v0.92h-0.92zM47.40 39.61h0.92v0.92h-0.92zM48.32 39.61h0.92v0.92h-0.92zM50.15 39.61h0.92v0.92h-0.92zM51.99 39.61h0.92v0.92h-0.92zM52.91 39.61h0.92v0.92h-0.92zM16.17 40.53h0.92v0.92h-0.92zM17.09 40.53h0.92v0.92h-0.92zM18.01 40.53h0.92v0.92h-0.92zM18.93 40.53h0.92v0.92h-0.92zM19.85 40.53h0.92v0.92h-0.92zM21.68 40.53h0.92v0.92h-0.92zM22.60 40.53h0.92v0.92h-0.92zM26.28 40.53h0.92v0.92h-0.92zM28.11 40.53h0.92v0.92h-0.92zM30.87 40.53h0.92v0.92h-0.92zM31.79 40.53h0.92v0.92h-0.92zM33.62 40.53h0.92v0.92h-0.92zM40.05 40.53h0.92v0.92h-0.92zM40.97 40.53h0.92v0.92h-0.92zM41.89 40.53h0.92v0.92h-0.92zM42.81 40.53h0.92v0.92h-0.92zM45.56 40.53h0.92v0.92h-0.92zM47.40 40.53h0.92v0.92h-0.92zM50.15 40.53h0.92v0.92h-0.92zM51.07 40.53h0.92v0.92h-0.92zM51.99 40.53h0.92v0.92h-0.92zM52.91 40.53h0.92v0.92h-0.92zM17.09 41.45h0.92v0.92h-0.92zM18.01 41.45h0.92v0.92h-0.92zM27.19 41.45h0.92v0.92h-0.92zM29.95 41.45h0.92v0.92h-0.92zM30.87 41.45h0.92v0.92h-0.92zM31.79 41.45h0.92v0.92h-0.92zM32.70 41.45h0.92v0.92h-0.92zM33.62 41.45h0.92v0.92h-0.92zM36.38 41.45h0.92v0.92h-0.92zM37.30 41.45h0.92v0.92h-0.92zM39.13 41.45h0.92v0.92h-0.92zM40.05 41.45h0.92v0.92h-0.92zM41.89 41.45h0.92v0.92h-0.92zM42.81 41.45h0.92v0.92h-0.92zM44.64 41.45h0.92v0.92h-0.92zM45.56 41.45h0.92v0.92h-0.92zM47.40 41.45h0.92v0.92h-0.92zM48.32 41.45h0.92v0.92h-0.92zM16.17 42.37h0.92v0.92h-0.92zM17.09 42.37h0.92v0.92h-0.92zM19.85 42.37h0.92v0.92h-0.92zM21.68 42.37h0.92v0.92h-0.92zM22.60 42.37h0.92v0.92h-0.92zM23.52 42.37h0.92v0.92h-0.92zM24.44 42.37h0.92v0.92h-0.92zM25.36 42.37h0.92v0.92h-0.92zM27.19 42.37h0.92v0.92h-0.92zM28.11 42.37h0.92v0.92h-0.92zM29.95 42.37h0.92v0.92h-0.92zM36.38 42.37h0.92v0.92h-0.92zM39.13 42.37h0.92v0.92h-0.92zM40.97 42.37h0.92v0.92h-0.92zM42.81 42.37h0.92v0.92h-0.92zM45.56 42.37h0.92v0.92h-0.92zM47.40 42.37h0.92v0.92h-0.92zM48.32 42.37h0.92v0.92h-0.92zM17.09 43.29h0.92v0.92h-0.92zM18.93 43.29h0.92v0.92h-0.92zM19.85 43.29h0.92v0.92h-0.92zM20.77 43.29h0.92v0.92h-0.92zM23.52 43.29h0.92v0.92h-0.92zM25.36 43.29h0.92v0.92h-0.92zM26.28 43.29h0.92v0.92h-0.92zM27.19 43.29h0.92v0.92h-0.92zM29.03 43.29h0.92v0.92h-0.92zM32.70 43.29h0.92v0.92h-0.92zM35.46 43.29h0.92v0.92h-0.92zM38.21 43.29h0.92v0.92h-0.92zM40.05 43.29h0.92v0.92h-0.92zM42.81 43.29h0.92v0.92h-0.92zM45.56 43.29h0.92v0.92h-0.92zM47.40 43.29h0.92v0.92h-0.92zM51.99 43.29h0.92v0.92h-0.92zM52.91 43.29h0.92v0.92h-0.92zM18.01 44.20h0.92v0.92h-0.92zM19.85 44.20h0.92v0.92h-0.92zM20.77 44.20h0.92v0.92h-0.92zM21.68 44.20h0.92v0.92h-0.92zM22.60 44.20h0.92v0.92h-0.92zM23.52 44.20h0.92v0.92h-0.92zM26.28 44.20h0.92v0.92h-0.92zM27.19 44.20h0.92v0.92h-0.92zM28.11 44.20h0.92v0.92h-0.92zM29.95 44.20h0.92v0.92h-0.92zM31.79 44.20h0.92v0.92h-0.92zM33.62 44.20h0.92v0.92h-0.92zM38.21 44.20h0.92v0.92h-0.92zM39.13 44.20h0.92v0.92h-0.92zM41.89 44.20h0.92v0.92h-0.92zM43.72 44.20h0.92v0.92h-0.92zM45.56 44.20h0.92v0.92h-0.92zM46.48 44.20h0.92v0.92h-0.92zM49.23 44.20h0.92v0.92h-0.92zM50.15 44.20h0.92v0.92h-0.92zM51.07 44.20h0.92v0.92h-0.92zM51.99 44.20h0.92v0.92h-0.92zM52.91 44.20h0.92v0.92h-0.92zM16.17 45.12h0.92v0.92h-0.92zM23.52 45.12h0.92v0.92h-0.92zM25.36 45.12h0.92v0.92h-0.92zM26.28 45.12h0.92v0.92h-0.92zM28.11 45.12h0.92v0.92h-0.92zM30.87 45.12h0.92v0.92h-0.92zM35.46 45.12h0.92v0.92h-0.92zM36.38 45.12h0.92v0.92h-0.92zM37.30 45.12h0.92v0.92h-0.92zM38.21 45.12h0.92v0.92h-0.92zM41.89 45.12h0.92v0.92h-0.92zM42.81 45.12h0.92v0.92h-0.92zM43.72 45.12h0.92v0.92h-0.92zM44.64 45.12h0.92v0.92h-0.92zM47.40 45.12h0.92v0.92h-0.92zM48.32 45.12h0.92v0.92h-0.92zM51.99 45.12h0.92v0.92h-0.92zM52.91 45.12h0.92v0.92h-0.92zM17.09 46.04h0.92v0.92h-0.92zM18.01 46.04h0.92v0.92h-0.92zM18.93 46.04h0.92v0.92h-0.92zM19.85 46.04h0.92v0.92h-0.92zM20.77 46.04h0.92v0.92h-0.92zM21.68 46.04h0.92v0.92h-0.92zM22.60 46.04h0.92v0.92h-0.92zM27.19 46.04h0.92v0.92h-0.92zM28.11 46.04h0.92v0.92h-0.92zM33.62 46.04h0.92v0.92h-0.92zM34.54 46.04h0.92v0.92h-0.92zM38.21 46.04h0.92v0.92h-0.92zM40.97 46.04h0.92v0.92h-0.92zM41.89 46.04h0.92v0.92h-0.92zM43.72 46.04h0.92v0.92h-0.92zM45.56 46.04h0.92v0.92h-0.92zM46.48 46.04h0.92v0.92h-0.92zM47.40 46.04h0.92v0.92h-0.92zM50.15 46.04h0.92v0.92h-0.92zM51.99 46.04h0.92v0.92h-0.92zM18.93 46.96h0.92v0.92h-0.92zM25.36 46.96h0.92v0.92h-0.92zM26.28 46.96h0.92v0.92h-0.92zM27.19 46.96h0.92v0.92h-0.92zM29.95 46.96h0.92v0.92h-0.92zM31.79 46.96h0.92v0.92h-0.92zM32.70 46.96h0.92v0.92h-0.92zM36.38 46.96h0.92v0.92h-0.92zM38.21 46.96h0.92v0.92h-0.92zM41.89 46.96h0.92v0.92h-0.92zM42.81 46.96h0.92v0.92h-0.92zM43.72 46.96h0.92v0.92h-0.92zM45.56 46.96h0.92v0.92h-0.92zM47.40 46.96h0.92v0.92h-0.92zM51.07 46.96h0.92v0.92h-0.92zM51.99 46.96h0.92v0.92h-0.92zM52.91 46.96h0.92v0.92h-0.92zM16.17 47.88h0.92v0.92h-0.92zM17.09 47.88h0.92v0.92h-0.92zM18.01 47.88h0.92v0.92h-0.92zM18.93 47.88h0.92v0.92h-0.92zM19.85 47.88h0.92v0.92h-0.92zM20.77 47.88h0.92v0.92h-0.92zM21.68 47.88h0.92v0.92h-0.92zM22.60 47.88h0.92v0.92h-0.92zM24.44 47.88h0.92v0.92h-0.92zM27.19 47.88h0.92v0.92h-0.92zM30.87 47.88h0.92v0.92h-0.92zM33.62 47.88h0.92v0.92h-0.92zM34.54 47.88h0.92v0.92h-0.92zM39.13 47.88h0.92v0.92h-0.92zM41.89 47.88h0.92v0.92h-0.92zM45.56 47.88h0.92v0.92h-0.92zM46.48 47.88h0.92v0.92h-0.92zM48.32 47.88h0.92v0.92h-0.92zM49.23 47.88h0.92v0.92h-0.92zM50.15 47.88h0.92v0.92h-0.92zM51.07 47.88h0.92v0.92h-0.92zM51.99 47.88h0.92v0.92h-0.92zM52.91 47.88h0.92v0.92h-0.92zM18.01 48.80h0.92v0.92h-0.92zM18.93 48.80h0.92v0.92h-0.92zM20.77 48.80h0.92v0.92h-0.92zM24.44 48.80h0.92v0.92h-0.92zM29.03 48.80h0.92v0.92h-0.92zM29.95 48.80h0.92v0.92h-0.92zM30.87 48.80h0.92v0.92h-0.92zM31.79 48.80h0.92v0.92h-0.92zM33.62 48.80h0.92v0.92h-0.92zM34.54 48.80h0.92v0.92h-0.92zM36.38 48.80h0.92v0.92h-0.92zM37.30 48.80h0.92v0.92h-0.92zM38.21 48.80h0.92v0.92h-0.92zM39.13 48.80h0.92v0.92h-0.92zM40.05 48.80h0.92v0.92h-0.92zM40.97 48.80h0.92v0.92h-0.92zM41.89 48.80h0.92v0.92h-0.92zM42.81 48.80h0.92v0.92h-0.92zM43.72 48.80h0.92v0.92h-0.92zM44.64 48.80h0.92v0.92h-0.92zM47.40 48.80h0.92v0.92h-0.92zM48.32 48.80h0.92v0.92h-0.92zM49.23 48.80h0.92v0.92h-0.92zM51.99 48.80h0.92v0.92h-0.92zM16.17 49.71h0.92v0.92h-0.92zM18.93 49.71h0.92v0.92h-0.92zM21.68 49.71h0.92v0.92h-0.92zM24.44 49.71h0.92v0.92h-0.92zM27.19 49.71h0.92v0.92h-0.92zM31.79 49.71h0.92v0.92h-0.92zM33.62 49.71h0.92v0.92h-0.92zM35.46 49.71h0.92v0.92h-0.92zM36.38 49.71h0.92v0.92h-0.92zM37.30 49.71h0.92v0.92h-0.92zM38.21 49.71h0.92v0.92h-0.92zM39.13 49.71h0.92v0.92h-0.92zM41.89 49.71h0.92v0.92h-0.92zM42.81 49.71h0.92v0.92h-0.92zM44.64 49.71h0.92v0.92h-0.92zM45.56 49.71h0.92v0.92h-0.92zM46.48 49.71h0.92v0.92h-0.92zM47.40 49.71h0.92v0.92h-0.92zM48.32 49.71h0.92v0.92h-0.92zM50.15 49.71h0.92v0.92h-0.92zM52.91 49.71h0.92v0.92h-0.92zM16.17 50.63h0.92v0.92h-0.92zM17.09 50.63h0.92v0.92h-0.92zM19.85 50.63h0.92v0.92h-0.92zM22.60 50.63h0.92v0.92h-0.92zM24.44 50.63h0.92v0.92h-0.92zM25.36 50.63h0.92v0.92h-0.92zM28.11 50.63h0.92v0.92h-0.92zM30.87 50.63h0.92v0.92h-0.92zM32.70 50.63h0.92v0.92h-0.92zM33.62 50.63h0.92v0.92h-0.92zM35.46 50.63h0.92v0.92h-0.92zM38.21 50.63h0.92v0.92h-0.92zM39.13 50.63h0.92v0.92h-0.92zM41.89 50.63h0.92v0.92h-0.92zM46.48 50.63h0.92v0.92h-0.92zM47.40 50.63h0.92v0.92h-0.92zM51.99 50.63h0.92v0.92h-0.92zM52.91 50.63h0.92v0.92h-0.92zM16.17 51.55h0.92v0.92h-0.92zM17.09 51.55h0.92v0.92h-0.92zM18.01 51.55h0.92v0.92h-0.92zM21.68 51.55h0.92v0.92h-0.92zM22.60 51.55h0.92v0.92h-0.92zM24.44 51.55h0.92v0.92h-0.92zM25.36 51.55h0.92v0.92h-0.92zM26.28 51.55h0.92v0.92h-0.92zM29.03 51.55h0.92v0.92h-0.92zM30.87 51.55h0.92v0.92h-0.92zM32.70 51.55h0.92v0.92h-0.92zM33.62 51.55h0.92v0.92h-0.92zM36.38 51.55h0.92v0.92h-0.92zM40.05 51.55h0.92v0.92h-0.92zM43.72 51.55h0.92v0.92h-0.92zM48.32 51.55h0.92v0.92h-0.92zM49.23 51.55h0.92v0.92h-0.92zM51.07 51.55h0.92v0.92h-0.92zM51.99 51.55h0.92v0.92h-0.92zM52.91 51.55h0.92v0.92h-0.92zM17.09 52.47h0.92v0.92h-0.92zM18.01 52.47h0.92v0.92h-0.92zM19.85 52.47h0.92v0.92h-0.92zM22.60 52.47h0.92v0.92h-0.92zM25.36 52.47h0.92v0.92h-0.92zM27.19 52.47h0.92v0.92h-0.92zM29.03 52.47h0.92v0.92h-0.92zM29.95 52.47h0.92v0.92h-0.92zM30.87 52.47h0.92v0.92h-0.92zM31.79 52.47h0.92v0.92h-0.92zM34.54 52.47h0.92v0.92h-0.92zM37.30 52.47h0.92v0.92h-0.92zM39.13 52.47h0.92v0.92h-0.92zM40.05 52.47h0.92v0.92h-0.92zM42.81 52.47h0.92v0.92h-0.92zM45.56 52.47h0.92v0.92h-0.92zM47.40 52.47h0.92v0.92h-0.92zM52.91 52.47h0.92v0.92h-0.92zM16.17 53.39h0.92v0.92h-0.92zM18.01 53.39h0.92v0.92h-0.92zM18.93 53.39h0.92v0.92h-0.92zM20.77 53.39h0.92v0.92h-0.92zM21.68 53.39h0.92v0.92h-0.92zM24.44 53.39h0.92v0.92h-0.92zM27.19 53.39h0.92v0.92h-0.92zM28.11 53.39h0.92v0.92h-0.92zM31.79 53.39h0.92v0.92h-0.92zM32.70 53.39h0.92v0.92h-0.92zM33.62 53.39h0.92v0.92h-0.92zM35.46 53.39h0.92v0.92h-0.92zM36.38 53.39h0.92v0.92h-0.92zM38.21 53.39h0.92v0.92h-0.92zM39.13 53.39h0.92v0.92h-0.92zM42.81 53.39h0.92v0.92h-0.92zM44.64 53.39h0.92v0.92h-0.92zM46.48 53.39h0.92v0.92h-0.92zM47.40 53.39h0.92v0.92h-0.92zM50.15 53.39h0.92v0.92h-0.92zM51.99 53.39h0.92v0.92h-0.92zM52.91 53.39h0.92v0.92h-0.92zM18.01 54.31h0.92v0.92h-0.92zM18.93 54.31h0.92v0.92h-0.92zM19.85 54.31h0.92v0.92h-0.92zM20.77 54.31h0.92v0.92h-0.92zM23.52 54.31h0.92v0.92h-0.92zM25.36 54.31h0.92v0.92h-0.92zM27.19 54.31h0.92v0.92h-0.92zM32.70 54.31h0.92v0.92h-0.92zM37.30 54.31h0.92v0.92h-0.92zM38.21 54.31h0.92v0.92h-0.92zM39.13 54.31h0.92v0.92h-0.92zM40.05 54.31h0.92v0.92h-0.92zM40.97 54.31h0.92v0.92h-0.92zM45.56 54.31h0.92v0.92h-0.92zM46.48 54.31h0.92v0.92h-0.92zM47.40 54.31h0.92v0.92h-0.92zM50.15 54.31h0.92v0.92h-0.92zM51.07 54.31h0.92v0.92h-0.92zM51.99 54.31h0.92v0.92h-0.92zM52.91 54.31h0.92v0.92h-0.92zM16.17 55.22h0.92v0.92h-0.92zM18.93 55.22h0.92v0.92h-0.92zM19.85 55.22h0.92v0.92h-0.92zM21.68 55.22h0.92v0.92h-0.92zM22.60 55.22h0.92v0.92h-0.92zM23.52 55.22h0.92v0.92h-0.92zM25.36 55.22h0.92v0.92h-0.92zM26.28 55.22h0.92v0.92h-0.92zM27.19 55.22h0.92v0.92h-0.92zM29.95 55.22h0.92v0.92h-0.92zM31.79 55.22h0.92v0.92h-0.92zM33.62 55.22h0.92v0.92h-0.92zM35.46 55.22h0.92v0.92h-0.92zM36.38 55.22h0.92v0.92h-0.92zM37.30 55.22h0.92v0.92h-0.92zM38.21 55.22h0.92v0.92h-0.92zM39.13 55.22h0.92v0.92h-0.92zM40.05 55.22h0.92v0.92h-0.92zM43.72 55.22h0.92v0.92h-0.92zM48.32 55.22h0.92v0.92h-0.92zM50.15 55.22h0.92v0.92h-0.92zM51.07 55.22h0.92v0.92h-0.92zM51.99 55.22h0.92v0.92h-0.92zM52.91 55.22h0.92v0.92h-0.92zM17.09 56.14h0.92v0.92h-0.92zM18.01 56.14h0.92v0.92h-0.92zM20.77 56.14h0.92v0.92h-0.92zM25.36 56.14h0.92v0.92h-0.92zM27.19 56.14h0.92v0.92h-0.92zM31.79 56.14h0.92v0.92h-0.92zM34.54 56.14h0.92v0.92h-0.92zM38.21 56.14h0.92v0.92h-0.92zM39.13 56.14h0.92v0.92h-0.92zM40.97 56.14h0.92v0.92h-0.92zM42.81 56.14h0.92v0.92h-0.92zM43.72 56.14h0.92v0.92h-0.92zM44.64 56.14h0.92v0.92h-0.92zM45.56 56.14h0.92v0.92h-0.92zM46.48 56.14h0.92v0.92h-0.92zM47.40 56.14h0.92v0.92h-0.92zM49.23 56.14h0.92v0.92h-0.92zM50.15 56.14h0.92v0.92h-0.92zM16.17 57.06h0.92v0.92h-0.92zM18.01 57.06h0.92v0.92h-0.92zM18.93 57.06h0.92v0.92h-0.92zM19.85 57.06h0.92v0.92h-0.92zM20.77 57.06h0.92v0.92h-0.92zM21.68 57.06h0.92v0.92h-0.92zM28.11 57.06h0.92v0.92h-0.92zM29.03 57.06h0.92v0.92h-0.92zM29.95 57.06h0.92v0.92h-0.92zM33.62 57.06h0.92v0.92h-0.92zM34.54 57.06h0.92v0.92h-0.92zM35.46 57.06h0.92v0.92h-0.92zM36.38 57.06h0.92v0.92h-0.92zM37.30 57.06h0.92v0.92h-0.92zM39.13 57.06h0.92v0.92h-0.92zM40.05 57.06h0.92v0.92h-0.92zM41.89 57.06h0.92v0.92h-0.92zM42.81 57.06h0.92v0.92h-0.92zM45.56 57.06h0.92v0.92h-0.92zM46.48 57.06h0.92v0.92h-0.92zM47.40 57.06h0.92v0.92h-0.92zM48.32 57.06h0.92v0.92h-0.92zM49.23 57.06h0.92v0.92h-0.92zM51.99 57.06h0.92v0.92h-0.92zM23.52 57.98h0.92v0.92h-0.92zM25.36 57.98h0.92v0.92h-0.92zM27.19 57.98h0.92v0.92h-0.92zM29.03 57.98h0.92v0.92h-0.92zM32.70 57.98h0.92v0.92h-0.92zM33.62 57.98h0.92v0.92h-0.92zM34.54 57.98h0.92v0.92h-0.92zM36.38 57.98h0.92v0.92h-0.92zM38.21 57.98h0.92v0.92h-0.92zM39.13 57.98h0.92v0.92h-0.92zM40.05 57.98h0.92v0.92h-0.92zM41.89 57.98h0.92v0.92h-0.92zM45.56 57.98h0.92v0.92h-0.92zM49.23 57.98h0.92v0.92h-0.92zM50.15 57.98h0.92v0.92h-0.92zM51.99 57.98h0.92v0.92h-0.92zM52.91 57.98h0.92v0.92h-0.92zM16.17 58.90h0.92v0.92h-0.92zM17.09 58.90h0.92v0.92h-0.92zM18.01 58.90h0.92v0.92h-0.92zM18.93 58.90h0.92v0.92h-0.92zM19.85 58.90h0.92v0.92h-0.92zM20.77 58.90h0.92v0.92h-0.92zM21.68 58.90h0.92v0.92h-0.92zM23.52 58.90h0.92v0.92h-0.92zM24.44 58.90h0.92v0.92h-0.92zM27.19 58.90h0.92v0.92h-0.92zM28.11 58.90h0.92v0.92h-0.92zM29.03 58.90h0.92v0.92h-0.92zM30.87 58.90h0.92v0.92h-0.92zM31.79 58.90h0.92v0.92h-0.92zM32.70 58.90h0.92v0.92h-0.92zM34.54 58.90h0.92v0.92h-0.92zM40.05 58.90h0.92v0.92h-0.92zM42.81 58.90h0.92v0.92h-0.92zM44.64 58.90h0.92v0.92h-0.92zM45.56 58.90h0.92v0.92h-0.92zM47.40 58.90h0.92v0.92h-0.92zM49.23 58.90h0.92v0.92h-0.92zM52.91 58.90h0.92v0.92h-0.92zM16.17 59.82h0.92v0.92h-0.92zM21.68 59.82h0.92v0.92h-0.92zM25.36 59.82h0.92v0.92h-0.92zM27.19 59.82h0.92v0.92h-0.92zM29.03 59.82h0.92v0.92h-0.92zM30.87 59.82h0.92v0.92h-0.92zM31.79 59.82h0.92v0.92h-0.92zM32.70 59.82h0.92v0.92h-0.92zM33.62 59.82h0.92v0.92h-0.92zM35.46 59.82h0.92v0.92h-0.92zM36.38 59.82h0.92v0.92h-0.92zM37.30 59.82h0.92v0.92h-0.92zM38.21 59.82h0.92v0.92h-0.92zM39.13 59.82h0.92v0.92h-0.92zM40.05 59.82h0.92v0.92h-0.92zM41.89 59.82h0.92v0.92h-0.92zM45.56 59.82h0.92v0.92h-0.92zM49.23 59.82h0.92v0.92h-0.92zM51.99 59.82h0.92v0.92h-0.92zM16.17 60.73h0.92v0.92h-0.92zM18.01 60.73h0.92v0.92h-0.92zM18.93 60.73h0.92v0.92h-0.92zM19.85 60.73h0.92v0.92h-0.92zM21.68 60.73h0.92v0.92h-0.92zM23.52 60.73h0.92v0.92h-0.92zM24.44 60.73h0.92v0.92h-0.92zM25.36 60.73h0.92v0.92h-0.92zM28.11 60.73h0.92v0.92h-0.92zM29.03 60.73h0.92v0.92h-0.92zM29.95 60.73h0.92v0.92h-0.92zM32.70 60.73h0.92v0.92h-0.92zM33.62 60.73h0.92v0.92h-0.92zM35.46 60.73h0.92v0.92h-0.92zM36.38 60.73h0.92v0.92h-0.92zM37.30 60.73h0.92v0.92h-0.92zM38.21 60.73h0.92v0.92h-0.92zM40.05 60.73h0.92v0.92h-0.92zM40.97 60.73h0.92v0.92h-0.92zM45.56 60.73h0.92v0.92h-0.92zM46.48 60.73h0.92v0.92h-0.92zM47.40 60.73h0.92v0.92h-0.92zM48.32 60.73h0.92v0.92h-0.92zM49.23 60.73h0.92v0.92h-0.92zM51.99 60.73h0.92v0.92h-0.92zM16.17 61.65h0.92v0.92h-0.92zM18.01 61.65h0.92v0.92h-0.92zM18.93 61.65h0.92v0.92h-0.92zM19.85 61.65h0.92v0.92h-0.92zM21.68 61.65h0.92v0.92h-0.92zM24.44 61.65h0.92v0.92h-0.92zM25.36 61.65h0.92v0.92h-0.92zM26.28 61.65h0.92v0.92h-0.92zM28.11 61.65h0.92v0.92h-0.92zM29.03 61.65h0.92v0.92h-0.92zM30.87 61.65h0.92v0.92h-0.92zM32.70 61.65h0.92v0.92h-0.92zM36.38 61.65h0.92v0.92h-0.92zM39.13 61.65h0.92v0.92h-0.92zM40.05 61.65h0.92v0.92h-0.92zM41.89 61.65h0.92v0.92h-0.92zM45.56 61.65h0.92v0.92h-0.92zM46.48 61.65h0.92v0.92h-0.92zM49.23 61.65h0.92v0.92h-0.92zM51.99 61.65h0.92v0.92h-0.92zM16.17 62.57h0.92v0.92h-0.92zM18.01 62.57h0.92v0.92h-0.92zM18.93 62.57h0.92v0.92h-0.92zM19.85 62.57h0.92v0.92h-0.92zM21.68 62.57h0.92v0.92h-0.92zM23.52 62.57h0.92v0.92h-0.92zM24.44 62.57h0.92v0.92h-0.92zM26.28 62.57h0.92v0.92h-0.92zM27.19 62.57h0.92v0.92h-0.92zM29.03 62.57h0.92v0.92h-0.92zM31.79 62.57h0.92v0.92h-0.92zM34.54 62.57h0.92v0.92h-0.92zM38.21 62.57h0.92v0.92h-0.92zM39.13 62.57h0.92v0.92h-0.92zM40.05 62.57h0.92v0.92h-0.92zM44.64 62.57h0.92v0.92h-0.92zM48.32 62.57h0.92v0.92h-0.92zM49.23 62.57h0.92v0.92h-0.92zM51.07 62.57h0.92v0.92h-0.92zM51.99 62.57h0.92v0.92h-0.92zM52.91 62.57h0.92v0.92h-0.92zM16.17 63.49h0.92v0.92h-0.92zM21.68 63.49h0.92v0.92h-0.92zM23.52 63.49h0.92v0.92h-0.92zM24.44 63.49h0.92v0.92h-0.92zM26.28 63.49h0.92v0.92h-0.92zM27.19 63.49h0.92v0.92h-0.92zM29.03 63.49h0.92v0.92h-0.92zM31.79 63.49h0.92v0.92h-0.92zM34.54 63.49h0.92v0.92h-0.92zM36.38 63.49h0.92v0.92h-0.92zM39.13 63.49h0.92v0.92h-0.92zM40.05 63.49h0.92v0.92h-0.92zM40.97 63.49h0.92v0.92h-0.92zM42.81 63.49h0.92v0.92h-0.92zM44.64 63.49h0.92v0.92h-0.92zM45.56 63.49h0.92v0.92h-0.92zM48.32 63.49h0.92v0.92h-0.92zM51.99 63.49h0.92v0.92h-0.92zM16.17 64.41h0.92v0.92h-0.92zM17.09 64.41h0.92v0.92h-0.92zM18.01 64.41h0.92v0.92h-0.92zM18.93 64.41h0.92v0.92h-0.92zM19.85 64.41h0.92v0.92h-0.92zM20.77 64.41h0.92v0.92h-0.92zM21.68 64.41h0.92v0.92h-0.92zM24.44 64.41h0.92v0.92h-0.92zM26.28 64.41h0.92v0.92h-0.92zM27.19 64.41h0.92v0.92h-0.92zM28.11 64.41h0.92v0.92h-0.92zM29.03 64.41h0.92v0.92h-0.92zM29.95 64.41h0.92v0.92h-0.92zM30.87 64.41h0.92v0.92h-0.92zM31.79 64.41h0.92v0.92h-0.92zM33.62 64.41h0.92v0.92h-0.92zM36.38 64.41h0.92v0.92h-0.92zM38.21 64.41h0.92v0.92h-0.92zM39.13 64.41h0.92v0.92h-0.92zM40.97 64.41h0.92v0.92h-0.92zM42.81 64.41h0.92v0.92h-0.92zM44.64 64.41h0.92v0.92h-0.92zM45.56 64.41h0.92v0.92h-0.92zM47.40 64.41h0.92v0.92h-0.92zM48.32 64.41h0.92v0.92h-0.92zM49.23 64.41h0.92v0.92h-0.92zM51.99 64.41h0.92v0.92h-0.92zM52.91 64.41h0.92v0.92h-0.92z" fill="#000000"/>
  <text x="35" y="78" text-anchor="middle" font-family="Helvetica, Arial, sans-serif" font-size="4.2" font-weight="bold" fill="#f7efe6">¿Qué tal ha ido?</text>
  <text x="35" y="84" text-anchor="middle" font-family="Helvetica, Arial, sans-serif" font-size="2.9" fill="#f7efe6" opacity="0.6">Apunta con la cámara</text>
</svg>