<svg xmlns="http://www.w3.org/2000/svg" width="148mm" height="210mm" viewBox="0 0 148 210">
  <rect width="148" height="210" fill="#171012"/>
  <rect x="6" y="6" width="136" height="198" rx="5" fill="none" stroke="#d99a3f" stroke-width="0.6" opacity="0.5"/>

  <text x="74" y="26" text-anchor="middle" font-family="Georgia, serif" font-size="9" font-weight="bold" fill="#f7efe6">La Taberna · The White Bar</text>
  <text x="74" y="38" text-anchor="middle" font-family="Helvetica, Arial, sans-serif" font-size="6.5" fill="#d99a3f" letter-spacing="1.6">LA CARTA</text>

  <rect x="29" y="52" width="90" height="90" rx="6" fill="#ffffff"/><path d="M36.35 59.35h1.84v1.84h-1.84zM38.18 59.35h1.84v1.84h-1.84zM40.02 59.35h1.84v1.84h-1.84zM41.86 59.35h1.84v1.84h-1.84zM43.69 59.35h1.84v1.84h-1.84zM45.53 59.35h1.84v1.84h-1.84zM47.37 59.35h1.84v1.84h-1.84zM52.88 59.35h1.84v1.84h-1.84zM54.71 59.35h1.84v1.84h-1.84zM62.06 59.35h1.84v1.84h-1.84zM73.08 59.35h1.84v1.84h-1.84zM74.92 59.35h1.84v1.84h-1.84zM76.76 59.35h1.84v1.84h-1.84zM80.43 59.35h1.84v1.84h-1.84zM87.78 59.35h1.84v1.84h-1.84zM89.61 59.35h1.84v1.84h-1.84zM98.80 59.35h1.84v1.84h-1.84zM100.63 59.35h1.84v1.84h-1.84zM102.47 59.35h1.84v1.84h-1.84zM104.31 59.35h1.84v1.84h-1.84zM106.14 59.35h1.84v1.84h-1.84zM107.98 59.35h1.84v1.84h-1.84zM109.82 59.35h1.84v1.84h-1.84zM36.35 61.18h1.84v1.84h-1.84zM47.37 61.18h1.84v1.84h-1.84zM51.04 61.18h1.84v1.84h-1.84zM54.71 61.18h1.84v1.84h-1.84zM58.39 61.18h1.84v1.84h-1.84zM60.22 61.18h1.84v1.84h-1.84zM62.06 61.18h1.84v1.84h-1.84zM63.90 61.18h1.84v1.84h-1.84zM65.73 61.18h1.84v1.84h-1.84zM67.57 61.18h1.84v1.84h-1.84zM71.24 61.18h1.84v1.84h-1.84zM73.08 61.18h1.84v1.84h-1.84zM74.92 61.18h1.84v1.84h-1.84zM91.45 61.18h1.84v1.84h-1.84zM93.29 61.18h1.84v1.84h-1.84zM95.12 61.18h1.84v1.84h-1.84zM98.80 61.18h1.84v1.84h-1.84zM109.82 61.18h1.84v1.84h-1.84zM36.35 63.02h1.84v1.84h-1.84zM40.02 63.02h1.84v1.84h-1.84zM41.86 63.02h1.84v1.84h-1.84zM43.69 63.02h1.84v1.84h-1.84zM47.37 63.02h1.84v1.84h-1.84zM54.71 63.02h1.84v1.84h-1.84zM60.22 63.02h1.84v1.84h-1.84zM62.06 63.02h1.84v1.84h-1.84zM63.90 63.02h1.84v1.84h-1.84zM65.73 63.02h1.84v1.84h-1.84zM67.57 63.02h1.84v1.84h-1.84zM69.41 63.02h1.84v1.84h-1.84zM71.24 63.02h1.84v1.84h-1.84zM76.76 63.02h1.84v1.84h-1.84zM78.59 63.02h1.84v1.84h-1.84zM80.43 63.02h1.84v1.84h-1.84zM87.78 63.02h1.84v1.84h-1.84zM98.80 63.02h1.84v1.84h-1.84zM102.47 63.02h1.84v1.84h-1.84zM104.31 63.02h1.84v1.84h-1.84zM106.14 63.02h1.84v1.84h-1.84zM109.82 63.02h1.84v1.84h-1.84zM36.35 64.86h1.84v1.84h-1.84zM40.02 64.86h1.84v1.84h-1.84zM41.86 64.86h1.84v1.84h-1.84zM43.69 64.86h1.84v1.84h-1.84zM47.37 64.86h1.84v1.84h-1.84zM51.04 64.86h1.84v1.84h-1.84zM56.55 64.86h1.84v1.84h-1.84zM62.06 64.86h1.84v1.84h-1.84zM67.57 64.86h1.84v1.84h-1.84zM69.41 64.86h1.84v1.84h-1.84zM74.92 64.86h1.84v1.84h-1.84zM76.76 64.86h1.84v1.84h-1.84zM87.78 64.86h1.84v1.84h-1.84zM91.45 64.86h1.84v1.84h-1.84zM98.80 64.86h1.84v1.84h-1.84zM102.47 64.86h1.84v1.84h-1.84zM104.31 64.86h1.84v1.84h-1.84zM106.14 64.86h1.84v1.84h-1.84zM109.82 64.86h1.84v1.84h-1.84zM36.35 66.69h1.84v1.84h-1.84zM40.02 66.69h1.84v1.84h-1.84zM41.86 66.69h1.84v1.84h-1.84zM43.69 66.69h1.84v1.84h-1.84zM47.37 66.69h1.84v1.84h-1.84zM51.04 66.69h1.84v1.84h-1.84zM52.88 66.69h1.84v1.84h-1.84zM58.39 66.69h1.84v1.84h-1.84zM60.22 66.69h1.84v1.84h-1.84zM65.73 66.69h1.84v1.84h-1.84zM67.57 66.69h1.84v1.84h-1.84zM69.41 66.69h1.84v1.84h-1.84zM71.24 66.69h1.84v1.84h-1.84zM73.08 66.69h1.84v1.84h-1.84zM74.92 66.69h1.84v1.84h-1.84zM80.43 66.69h1.84v1.84h-1.84zM82.27 66.69h1.84v1.84h-1.84zM84.10 66.69h1.84v1.84h-1.84zM87.78 66.69h1.84v1.84h-1.84zM89.61 66.69h1.84v1.84h-1.84zM93.29 66.69h1.84v1.84h-1.84zM98.80 66.69h1.84v1.84h-1.84zM102.47 66.69h1.84v1.84h-1.84zM104.31 66.69h1.84v1.84h-1.84zM106.14 66.69h1.84v1.84h-1.84zM109.82 66.69h1.84v1.84h-1.84zM36.35 68.53h1.84v1.84h-1.84zM47.37 68.53h1.84v1.84h-1.84zM52.88 68.53h1.84v1.84h-1.84zM56.55 68.53h1.84v1.84h-1.84zM60.22 68.53h1.84v1.84h-1.84zM62.06 68.53h1.84v1.84h-1.84zM63.90 68.53h1.84v1.84h-1.84zM65.73 68.53h1.84v1.84h-1.84zM67.57 68.53h1.84v1.84h-1.84zM69.41 68.53h1.84v1.84h-1.84zM73.08 68.53h1.84v1.84h-1.84zM74.92 68.53h1.84v1.84h-1.84zM80.43 68.53h1.84v1.84h-1.84zM84.10 68.53h1.84v1.84h-1.84zM89.61 68.53h1.84v1.84h-1.84zM91.45 68.53h1.84v1.84h-1.84zM95.12 68.53h1.84v1.84h-1.84zM98.80 68.53h1.84v1.84h-1.84zM109.82 68.53h1.84v1.84h-1.84zM36.35 70.37h1.84v1.84h-1.84zM38.18 70.37h1.84v1.84h-1.84zM40.02 70.37h1.84v1.84h-1.84zM41.86 70.37h1.84v1.84h-1.84zM43.69 70.37h1.84v1.84h-1.84zM45.53 70.37h1.84v1.84h-1.84zM47.37 70.37h1.84v1.84h-1.84zM51.04 70.37h1.84v1.84h-1.84zM54.71 70.37h1.84v1.84h-1.84zM58.39 70.37h1.84v1.84h-1.84zM62.06 70.37h1.84v1.84h-1.84zM65.73 70.37h1.84v1.84h-1.84zM69.41 70.37h1.84v1.84h-1.84zM73.08 70.37h1.84v1.84h-1.84zM76.76 70.37h1.84v1.84h-1.84zM80.43 70.37h1.84v1.84h-1.84zM84.10 70.37h1.84v1.84h-1.84zM87.78 70.37h1.84v1.84h-1.84zM91.45 70.37h1.84v1.84h-1.84zM95.12 70.37h1.84v1.84h-1.84zM98.80 70.37h1.84v1.84h-1.84zM100.63 70.37h1.84v1.84h-1.84zM102.47 70.37h1.84v1.84h-1.84zM104.31 70.37h1.84v1.84h-1.84zM106.14 70.37h1.84v1.84h-1.84zM107.98 70.37h1.84v1.84h-1.84zM109.82 70.37h1.84v1.84h-1.84zM51.04 72.20h1.84v1.84h-1.84zM52.88 72.20h1.84v1.84h-1.84zM62.06 72.20h1.84v1.84h-1.84zM63.90 72.20h1.84v1.84h-1.84zM67.57 72.20h1.84v1.84h-1.84zM69.41 72.20h1.84v1.84h-1.84zM71.24 72.20h1.84v1.84h-1.84zM73.08 72.20h1.84v1.84h-1.84zM78.59 72.20h1.84v1.84h-1.84zM80.43 72.20h1.84v1.84h-1.84zM82.27 72.20h1.84v1.84h-1.84zM84.10 72.20h1.84v1.84h-1.84zM87.78 72.20h1.84v1.84h-1.84zM91.45 72.20h1.84v1.84h-1.84zM93.29 72.20h1.84v1.84h-1.84zM38.18 74.04h1.84v1.84h-1.84zM41.86 74.04h1.84v1.84h-1.84zM43.69 74.04h1.84v1.84h-1.84zM45.53 74.04h1.84v1.84h-1.84zM47.37 74.04h1.84v1.84h-1.84zM51.04 74.04h1.84v1.84h-1.84zM52.88 74.04h1.84v1.84h-1.84zM60.22 74.04h1.84v1.84h-1.84zM67.57 74.04h1.84v1.84h-1.84zM71.24 74.04h1.84v1.84h-1.84zM74.92 74.04h1.84v1.84h-1.84zM78.59 74.04h1.84v1.84h-1.84zM80.43 74.04h1.84v1.84h-1.84zM84.10 74.04h1.84v1.84h-1.84zM85.94 74.04h1.84v1.84h-1.84zM87.78 74.04h1.84v1.84h-1.84zM89.61 74.04h1.84v1.84h-1.84zM93.29 74.04h1.84v1.84h-1.84zM95.12 74.04h1.84v1.84h-1.84zM96.96 74.04h1.84v1.84h-1.84zM98.80 74.04h1.84v1.84h-1.84zM102.47 74.04h1.84v1.84h-1.84zM104.31 74.04h1.84v1.84h-1.84zM107.98 74.04h1.84v1.84h-1.84zM41.86 75.88h1.84v1.84h-1.84zM43.69 75.88h1.84v1.84h-1.84zM54.71 75.88h1.84v1.84h-1.84zM58.39 75.88h1.84v1.84h-1.84zM62.06 75.88h1.84v1.84h-1.84zM65.73 75.88h1.84v1.84h-1.84zM67.57 75.88h1.84v1.84h-1.84zM71.24 75.88h1.84v1.84h-1.84zM73.08 75.88h1.84v1.84h-1.84zM76.76 75.88h1.84v1.84h-1.84zM84.10 75.88h1.84v1.84h-1.84zM85.94 75.88h1.84v1.84h-1.84zM93.29 75.88h1.84v1.84h-1.84zM102.47 75.88h1.84v1.84h-1.84zM107.98 75.88h1.84v1.84h-1.84zM40.02 77.71h1.84v1.84h-1.84zM43.69 77.71h1.84v1.84h-1.84zM47.37 77.71h1.84v1.84h-1.84zM49.20 77.71h1.84v1.84h-1.84zM52.88 77.71h1.84v1.84h-1.84zM54.71 77.71h1.84v1.84h-1.84zM58.39 77.71h1.84v1.84h-1.84zM60.22 77.71h1.84v1.84h-1.84zM62.06 77.71h1.84v1.84h-1.84zM65.73 77.71h1.84v1.84h-1.84zM67.57 77.71h1.84v1.84h-1.84zM69.41 77.71h1.84v1.84h-1.84zM76.76 77.71h1.84v1.84h-1.84zM78.59 77.71h1.84v1.84h-1.84zM80.43 77.71h1.84v1.84h-1.84zM82.27 77.71h1.84v1.84h-1.84zM84.10 77.71h1.84v1.84h-1.84zM85.94 77.71h1.84v1.84h-1.84zM87.78 77.71h1.84v1.84h-1.84zM96.96 77.71h1.84v1.84h-1.84zM106.14 77.71h1.84v1.84h-1.84zM40.02 79.55h1.84v1.84h-1.84zM45.53 79.55h1.84v1.84h-1.84zM49.20 79.55h1.84v1.84h-1.84zM52.88 79.55h1.84v1.84h-1.84zM54.71 79.55h1.84v1.84h-1.84zM56.55 79.55h1.84v1.84h-1.84zM60.22 79.55h1.84v1.84h-1.84zM62.06 79.55h1.84v1.84h-1.84zM67.57 79.55h1.84v1.84h-1.84zM69.41 79.55h1.84v1.84h-1.84zM74.92 79.55h1.84v1.84h-1.84zM80.43 79.55h1.84v1.84h-1.84zM85.94 79.55h1.84v1.84h-1.84zM89.61 79.55h1.84v1.84h-1.84zM93.29 79.55h1.84v1.84h-1.84zM95.12 79.55h1.84v1.84h-1.84zM98.80 79.55h1.84v1.84h-1.84zM100.63 79.55h1.84v1.84h-1.84zM102.47 79.55h1.84v1.84h-1.84zM104.31 79.55h1.84v1.84h-1.84zM107.98 79.55h1.84v1.84h-1.84zM109.82 79.55h1.84v1.84h-1.84zM36.35 81.39h1.84v1.84h-1.84zM38.18 81.39h1.84v1.84h-1.84zM40.02 81.39h1.84v1.84h-1.84zM45.53 81.39h1.84v1.84h-1.84zM47.37 81.39h1.84v1.84h-1.84zM54.71 81.39h1.84v1.84h-1.84zM58.39 81.39h1.84v1.84h-1.84zM60.22 81.39h1.84v1.84h-1.84zM63.90 81.39h1.84v1.84h-1.84zM69.41 81.39h1.84v1.84h-1.84zM71.24 81.39h1.84v1.84h-1.84zM74.92 81.39h1.84v1.84h-1.84zM76.76 81.39h1.84v1.84h-1.84zM80.43 81.39h1.84v1.84h-1.84zM95.12 81.39h1.84v1.84h-1.84zM96.96 81.39h1.84v1.84h-1.84zM98.80 81.39h1.84v1.84h-1.84zM100.63 81.39h1.84v1.84h-1.84zM109.82 81.39h1.84v1.84h-1.84zM36.35 83.22h1.84v1.84h-1.84zM38.18 83.22h1.84v1.84h-1.84zM40.02 83.22h1.84v1.84h-1.84zM41.86 83.22h1.84v1.84h-1.84zM43.69 83.22h1.84v1.84h-1.84zM54.71 83.22h1.84v1.84h-1.84zM56.55 83.22h1.84v1.84h-1.84zM58.39 83.22h1.84v1.84h-1.84zM60.22 83.22h1.84v1.84h-1.84zM62.06 83.22h1.84v1.84h-1.84zM67.57 83.22h1.84v1.84h-1.84zM69.41 83.22h1.84v1.84h-1.84zM73.08 83.22h1.84v1.84h-1.84zM74.92 83.22h1.84v1.84h-1.84zM76.76 83.22h1.84v1.84h-1.84zM84.10 83.22h1.84v1.84h-1.84zM91.45 83.22h1.84v1.84h-1.84zM93.29 83.22h1.84v1.84h-1.84zM102.47 83.22h1.84v1.84h-1.84zM104.31 83.22h1.84v1.84h-1.84zM106.14 83.22h1.84v1.84h-1.84zM109.82 83.22h1.84v1.84h-1.84zM47.37 85.06h1.84v1.84h-1.84zM51.04 85.06h1.84v1.84h-1.84zM52.88 85.06h1.84v1.84h-1.84zM56.55 85.06h1.84v1.84h-1.84zM62.06 85.06h1.84v1.84h-1.84zM63.90 85.06h1.84v1.84h-1.84zM69.41 85.06h1.84v1.84h-1.84zM73.08 85.06h1.84v1.84h-1.84zM76.76 85.06h1.84v1.84h-1.84zM78.59 85.06h1.84v1.84h-1.84zM80.43 85.06h1.84v1.84h-1.84zM82.27 85.06h1.84v1.84h-1.84zM84.10 85.06h1.84v1.84h-1.84zM85.94 85.06h1.84v1.84h-1.84zM96.96 85.06h1.84v1.84h-1.84zM98.80 85.06h1.84v1.84h-1.84zM109.82 85.06h1.84v1.84h-1.84zM36.35 86.90h1.84v1.84h-1.84zM38.18 86.90h1.84v1.84h-1.84zM41.86 86.90h1.84v1.84h-1.84zM43.69 86.90h1.84v1.84h-1.84zM49.20 86.90h1.84v1.84h-1.84zM51.04 86.90h1.84v1.84h-1.84zM52.88 86.90h1.84v1.84h-1.84zM56.55 86.90h1.84v1.84h-1.84zM60.22 86.90h1.84v1.84h-1.84zM67.57 86.90h1.84v1.84h-1.84zM69.41 86.90h1.84v1.84h-1.84zM73.08 86.90h1.84v1.84h-1.84zM76.76 86.90h1.84v1.84h-1.84zM78.59 86.90h1.84v1.84h-1.84zM87.78 86.90h1.84v1.84h-1.84zM91.45 86.90h1.84v1.84h-1.84zM93.29 86.90h1.84v1.84h-1.84zM96.96 86.90h1.84v1.84h-1.84zM102.47 86.90h1.84v1.84h-1.84zM104.31 86.90h1.84v1.84h-1.84zM106.14 86.90h1.84v1.84h-1.84zM107.98 86.90h1.84v1.84h-1.84zM109.82 86.90h1.84v1.84h-1.84zM41.86 88.73h1.84v1.84h-1.84zM43.69 88.73h1.84v1.84h-1.84zM47.37 88.73h1.84v1.84h-1.84zM49.20 88.73h1.84v1.84h-1.84zM54.71 88.73h1.84v1.84h-1.84zM56.55 88.73h1.84v1.84h-1.84zM62.06 88.73h1.84v1.84h-1.84zM63.90 88.73h1.84v1.84h-1.84zM71.24 88.73h1.84v1.84h-1.84zM73.08 88.73h1.84v1.84h-1.84zM74.92 88.73h1.84v1.84h-1.84zM76.76 88.73h1.84v1.84h-1.84zM80.43 88.73h1.84v1.84h-1.84zM82.27 88.73h1.84v1.84h-1.84zM85.94 88.73h1.84v1.84h-1.84zM87.78 88.73h1.84v1.84h-1.84zM93.29 88.73h1.84v1.84h-1.84zM96.96 88.73h1.84v1.84h-1.84zM107.98 88.73h1.84v1.84h-1.84zM109.82 88.73h1.84v1.84h-1.84zM36.35 90.57h1.84v1.84h-1.84zM38.18 90.57h1.84v1.84h-1.84zM40.02 90.57h1.84v1.84h-1.84zM49.20 90.57h1.84v1.84h-1.84zM52.88 90.57h1.84v1.84h-1.84zM56.55 90.57h1.84v1.84h-1.84zM58.39 90.57h1.84v1.84h-1.84zM60.22 90.57h1.84v1.84h-1.84zM62.06 90.57h1.84v1.84h-1.84zM67.57 90.57h1.84v1.84h-1.84zM76.76 90.57h1.84v1.84h-1.84zM80.43 90.57h1.84v1.84h-1.84zM84.10 90.57h1.84v1.84h-1.84zM85.94 90.57h1.84v1.84h-1.84zM91.45 90.57h1.84v1.84h-1.84zM93.29 90.57h1.84v1.84h-1.84zM95.12 90.57h1.84v1.84h-1.84zM96.96 90.57h1.84v1.84h-1.84zM102.47 90.57h1.84v1.84h-1.84zM104.31 90.57h1.84v1.84h-1.84zM38.18 92.41h1.84v1.84h-1.84zM40.02 92.41h1.84v1.84h-1.84zM43.69 92.41h1.84v1.84h-1.84zM47.37 92.41h1.84v1.84h-1.84zM49.20 92.41h1.84v1.84h-1.84zM52.88 92.41h1.84v1.84h-1.84zM54.71 92.41h1.84v1.84h-1.84zM60.22 92.41h1.84v1.84h-1.84zM62.06 92.41h1.84v1.84h-1.84zM63.90 92.41h1.84v1.84h-1.84zM78.59 92.41h1.84v1.84h-1.84zM80.43 92.41h1.84v1.84h-1.84zM82.27 92.41h1.84v1.84h-1.84zM84.10 92.41h1.84v1.84h-1.84zM85.94 92.41h1.84v1.84h-1.84zM93.29 92.41h1.84v1.84h-1.84zM100.63 92.41h1.84v1.84h-1.84zM102.47 92.41h1.84v1.84h-1.84zM106.14 92.41h1.84v1.84h-1.84zM109.82 92.41h1.84v1.84h-1.84zM40.02 94.24h1.84v1.84h-1.84zM41.86 94.24h1.84v1.84h-1.84zM45.53 94.24h1.84v1.84h-1.84zM52.88 94.24h1.84v1.84h-1.84zM62.06 94.24h1.84v1.84h-1.84zM63.90 94.24h1.84v1.84h-1.84zM69.41 94.24h1.84v1.84h-1.84zM73.08 94.24h1.84v1.84h-1.84zM78.59 94.24h1.84v1.84h-1.84zM80.43 94.24h1.84v1.84h-1.84zM82.27 94.24h1.84v1.84h-1.84zM89.61 94.24h1.84v1.84h-1.84zM91.45 94.24h1.84v1.84h-1.84zM93.29 94.24h1.84v1.84h-1.84zM95.12 94.24h1.84v1.84h-1.84zM96.96 94.24h1.84v1.84h-1.84zM98.80 94.24h1.84v1.84h-1.84zM102.47 94.24h1.84v1.84h-1.84zM106.14 94.24h1.84v1.84h-1.84zM109.82 94.24h1.84v1.84h-1.84zM40.02 96.08h1.84v1.84h-1.84zM43.69 96.08h1.84v1.84h-1.84zM45.53 96.08h1.84v1.84h-1.84zM47.37 96.08h1.84v1.84h-1.84zM49.20 96.08h1.84v1.84h-1.84zM54.71 96.08h1.84v1.84h-1.84zM56.55 96.08h1.84v1.84h-1.84zM58.39 96.08h1.84v1.84h-1.84zM60.22 96.08h1.84v1.84h-1.84zM67.57 96.08h1.84v1.84h-1.84zM71.24 96.08h1.84v1.84h-1.84zM74.92 96.08h1.84v1.84h-1.84zM80.43 96.08h1.84v1.84h-1.84zM82.27 96.08h1.84v1.84h-1.84zM85.94 96.08h1.84v1.84h-1.84zM87.78 96.08h1.84v1.84h-1.84zM93.29 96.08h1.84v1.84h-1.84zM98.80 96.08h1.84v1.84h-1.84zM100.63 96.08h1.84v1.84h-1.84zM106.14 96.08h1.84v1.84h-1.84zM36.35 97.92h1.84v1.84h-1.84zM38.18 97.92h1.84v1.84h-1.84zM40.02 97.92h1.84v1.84h-1.84zM41.86 97.92h1.84v1.84h-1.84zM45.53 97.92h1.84v1.84h-1.84zM49.20 97.92h1.84v1.84h-1.84zM51.04 97.92h1.84v1.84h-1.84zM54.71 97.92h1.84v1.84h-1.84zM60.22 97.92h1.84v1.84h-1.84zM62.06 97.92h1.84v1.84h-1.84zM65.73 97.92h1.84v1.84h-1.84zM69.41 97.92h1.84v1.84h-1.84zM71.24 97.92h1.84v1.84h-1.84zM73.08 97.92h1.84v1.84h-1.84zM74.92 97.92h1.84v1.84h-1.84zM78.59 97.92h1.84v1.84h-1.84zM82.27 97.92h1.84v1.84h-1.84zM85.94 97.92h1.84v1.84h-1.84zM91.45 97.92h1.84v1.84h-1.84zM93.29 97.92h1.84v1.84h-1.84zM96.96 97.92h1.84v1.84h-1.84zM100.63 97.92h1.84v1.84h-1.84zM102.47 97.92h1.84v1.84h-1.84zM106.14 97.92h1.84v1.84h-1.84zM36.35 99.76h1.84v1.84h-1.84zM38.18 99.76h1.84v1.84h-1.84zM41.86 99.76h1.84v1.84h-1.84zM47.37 99.76h1.84v1.84h-1.84zM49.20 99.76h1.84v1.84h-1.84zM51.04 99.76h1.84v1.84h-1.84zM56.55 99.76h1.84v1.84h-1.84zM58.39 99.76h1.84v1.84h-1.84zM60.22 99.76h1.84v1.84h-1.84zM62.06 99.76h1.84v1.84h-1.84zM63.90 99.76h1.84v1.84h-1.84zM69.41 99.76h1.84v1.84h-1.84zM71.24 99.76h1.84v1.84h-1.84zM73.08 99.76h1.84v1.84h-1.84zM78.59 99.76h1.84v1.84h-1.84zM82.27 99.76h1.84v1.84h-1.84zM85.94 99.76h1.84v1.84h-1.84zM89.61 99.76h1.84v1.84h-1.84zM95.12 99.76h1.84v1.84h-1.84zM98.80 99.76h1.84v1.84h-1.84zM102.47 99.76h1.84v1.84h-1.84zM104.31 99.76h1.84v1.84h-1.84zM36.35 101.59h1.84v1.84h-1.84zM38.18 101.59h1.84v1.84h-1.84zM51.04 101.59h1.84v1.84h-1.84zM58.39 101.59h1.84v1.84h-1.84zM67.57 101.59h1.84v1.84h-1.84zM73.08 101.59h1.84v1.84h-1.84zM74.92 101.59h1.84v1.84h-1.84zM78.59 101.59h1.84v1.84h-1.84zM84.10 101.59h1.84v1.84h-1.84zM89.61 101.59h1.84v1.84h-1.84zM96.96 101.59h1.84v1.84h-1.84zM100.63 101.59h1.84v1.84h-1.84zM102.47 101.59h1.84v1.84h-1.84zM104.31 101.59h1.84v1.84h-1.84zM107.98 101.59h1.84v1.84h-1.84zM109.82 101.59h1.84v1.84h-1.84zM38.18 103.43h1.84v1.84h-1.84zM40.02 103.43h1.84v1.84h-1.84zM41.86 103.43h1.84v1.84h-1.84zM47.37 103.43h1.84v1.84h-1.84zM51.04 103.43h1.84v1.84h-1.84zM52.88 103.43h1.84v1.84h-1.84zM54.71 103.43h1.84v1.84h-1.84zM56.55 103.43h1.84v1.84h-1.84zM60.22 103.43h1.84v1.84h-1.84zM62.06 103.43h1.84v1.84h-1.84zM63.90 103.43h1.84v1.84h-1.84zM67.57 103.43h1.84v1.84h-1.84zM69.41 103.43h1.84v1.84h-1.84zM76.76 103.43h1.84v1.84h-1.84zM80.43 103.43h1.84v1.84h-1.84zM85.94 103.43h1.84v1.84h-1.84zM87.78 103.43h1.84v1.84h-1.84zM95.12 103.43h1.84v1.84h-1.84zM98.80 103.43h1.84v1.84h-1.84zM104.31 103.43h1.84v1.84h-1.84zM36.35 105.27h1.84v1.84h-1.84zM40.02 105.27h1.84v1.84h-1.84zM45.53 105.27h1.84v1.84h-1.84zM51.04 105.27h1.84v1.84h-1.84zM54.71 105.27h1.84v1.84h-1.84zM60.22 105.27h1.84v1.84h-1.84zM62.06 105.27h1.84v1.84h-1.84zM63.90 105.27h1.84v1.84h-1.84zM67.57 105.27h1.84v1.84h-1.84zM78.59 105.27h1.84v1.84h-1.84zM82.27 105.27h1.84v1.84h-1.84zM84.10 105.27h1.84v1.84h-1.84zM85.94 105.27h1.84v1.84h-1.84zM87.78 105.27h1.84v1.84h-1.84zM89.61 105.27h1.84v1.84h-1.84zM91.45 105.27h1.84v1.84h-1.84zM95.12 105.27h1.84v1.84h-1.84zM98.80 105.27h1.84v1.84h-1.84zM100.63 105.27h1.84v1.84h-1.84zM102.47 105.27h1.84v1.84h-1.84zM106.14 105.27h1.84v1.84h-1.84zM109.82 105.27h1.84v1.84h-1.84zM36.35 107.10h1.84v1.84h-1.84zM40.02 107.10h1.84v1.84h-1.84zM43.69 107.10h1.84v1.84h-1.84zM45.53 107.10h1.84v1.84h-1.84zM47.37 107.10h1.84v1.84h-1.84zM49.20 107.10h1.84v1.84h-1.84zM51.04 107.10h1.84v1.84h-1.84zM54.71 107.10h1.84v1.84h-1.84zM56.55 107.10h1.84v1.84h-1.84zM58.39 107.10h1.84v1.84h-1.84zM60.22 107.10h1.84v1.84h-1.84zM65.73 107.10h1.84v1.84h-1.84zM69.41 107.10h1.84v1.84h-1.84zM73.08 107.10h1.84v1.84h-1.84zM74.92 107.10h1.84v1.84h-1.84zM76.76 107.10h1.84v1.84h-1.84zM82.27 107.10h1.84v1.84h-1.84zM85.94 107.10h1.84v1.84h-1.84zM91.45 107.10h1.84v1.84h-1.84zM93.29 107.10h1.84v1.84h-1.84zM95.12 107.10h1.84v1.84h-1.84zM100.63 107.10h1.84v1.84h-1.84zM102.47 107.10h1.84v1.84h-1.84zM104.31 107.10h1.84v1.84h-1.84zM109.82 107.10h1.84v1.84h-1.84zM36.35 108.94h1.84v1.84h-1.84zM38.18 108.94h1.84v1.84h-1.84zM40.02 108.94h1.84v1.84h-1.84zM41.86 108.94h1.84v1.84h-1.84zM45.53 108.94h1.84v1.84h-1.84zM51.04 108.94h1.84v1.84h-1.84zM52.88 108.94h1.84v1.84h-1.84zM56.55 108.94h1.84v1.84h-1.84zM58.39 108.94h1.84v1.84h-1.84zM60.22 108.94h1.84v1.84h-1.84zM63.90 108.94h1.84v1.84h-1.84zM65.73 108.94h1.84v1.84h-1.84zM69.41 108.94h1.84v1.84h-1.84zM73.08 108.94h1.84v1.84h-1.84zM74.92 108.94h1.84v1.84h-1.84zM76.76 108.94h1.84v1.84h-1.84zM80.43 108.94h1.84v1.84h-1.84zM85.94 108.94h1.84v1.84h-1.84zM87.78 108.94h1.84v1.84h-1.84zM91.45 108.94h1.84v1.84h-1.84zM93.29 108.94h1.84v1.84h-1.84zM100.63 108.94h1.84v1.84h-1.84zM102.47 108.94h1.84v1.84h-1.84zM104.31 108.94h1.84v1.84h-1.84zM106.14 108.94h1.84v1.84h-1.84zM107.98 108.94h1.84v1.84h-1.84zM109.82 108.94h1.84v1.84h-1.84zM36.35 110.78h1.84v1.84h-1.84zM40.02 110.78h1.84v1.84h-1.84zM43.69 110.78h1.84v1.84h-1.84zM47.37 110.78h1.84v1.84h-1.84zM54.71 110.78h1.84v1.84h-1.84zM60.22 110.78h1.84v1.84h-1.84zM63.90 110.78h1.84v1.84h-1.84zM69.41 110.78h1.84v1.84h-1.84zM73.08 110.78h1.84v1.84h-1.84zM78.59 110.78h1.84v1.84h-1.84zM82.27 110.78h1.84v1.84h-1.84zM85.94 110.78h1.84v1.84h-1.84zM93.29 110.78h1.84v1.84h-1.84zM98.80 110.78h1.84v1.84h-1.84zM100.63 110.78h1.84v1.84h-1.84zM104.31 110.78h1.84v1.84h-1.84zM109.82 110.78h1.84v1.84h-1.84zM36.35 112.61h1.84v1.84h-1.84zM40.02 112.61h1.84v1.84h-1.84zM45.53 112.61h1.84v1.84h-1.84zM49.20 112.61h1.84v1.84h-1.84zM51.04 112.61h1.84v1.84h-1.84zM56.55 112.61h1.84v1.84h-1.84zM65.73 112.61h1.84v1.84h-1.84zM71.24 112.61h1.84v1.84h-1.84zM76.76 112.61h1.84v1.84h-1.84zM78.59 112.61h1.84v1.84h-1.84zM80.43 112.61h1.84v1.84h-1.84zM84.10 112.61h1.84v1.84h-1.84zM89.61 112.61h1.84v1.84h-1.84zM91.45 112.61h1.84v1.84h-1.84zM98.80 112.61h1.84v1.84h-1.84zM102.47 112.61h1.84v1.84h-1.84zM106.14 112.61h1.84v1.84h-1.84zM36.35 114.45h1.84v1.84h-1.84zM38.18 114.45h1.84v1.84h-1.84zM43.69 114.45h1.84v1.84h-1.84zM47.37 114.45h1.84v1.84h-1.84zM51.04 114.45h1.84v1.84h-1.84zM58.39 114.45h1.84v1.84h-1.84zM60.22 114.45h1.84v1.84h-1.84zM62.06 114.45h1.84v1.84h-1.84zM67.57 114.45h1.84v1.84h-1.84zM71.24 114.45h1.84v1.84h-1.84zM73.08 114.45h1.84v1.84h-1.84zM76.76 114.45h1.84v1.84h-1.84zM78.59 114.45h1.84v1.84h-1.84zM82.27 114.45h1.84v1.84h-1.84zM87.78 114.45h1.84v1.84h-1.84zM89.61 114.45h1.84v1.84h-1.84zM91.45 114.45h1.84v1.84h-1.84zM93.29 114.45h1.84v1.84h-1.84zM96.96 114.45h1.84v1.84h-1.84zM106.14 114.45h1.84v1.84h-1.84zM109.82 114.45h1.84v1.84h-1.84zM36.35 116.29h1.84v1.84h-1.84zM38.18 116.29h1.84v1.84h-1.84zM41.86 116.29h1.84v1.84h-1.84zM45.53 116.29h1.84v1.84h-1.84zM51.04 116.29h1.84v1.84h-1.84zM52.88 116.29h1.84v1.84h-1.84zM56.55 116.29h1.84v1.84h-1.84zM62.06 116.29h1.84v1.84h-1.84zM67.57 116.29h1.84v1.84h-1.84zM69.41 116.29h1.84v1.84h-1.84zM71.24 116.29h1.84v1.84h-1.84zM74.92 116.29h1.84v1.84h-1.84zM80.43 116.29h1.84v1.84h-1.84zM82.27 116.29h1.84v1.84h-1.84zM84.10 116.29h1.84v1.84h-1.84zM85.94 116.29h1.84v1.84h-1.84zM87.78 116.29h1.84v1.84h-1.84zM93.29 116.29h1.84v1.84h-1.84zM95.12 116.29h1.84v1.84h-1.84zM98.80 116.29h1.84v1.84h-1.84zM100.63 116.29h1.84v1.84h-1.84zM104.31 116.29h1.84v1.84h-1.84zM106.14 116.29h1.84v1.84h-1.84zM107.98 116.29h1.84v1.84h-1.84zM36.35 118.12h1.84v1.84h-1.84zM38.18 118.12h1.84v1.84h-1.84zM41.86 118.12h1.84v1.84h-1.84zM45.53 118.12h1.84v1.84h-1.84zM47.37 118.12h1.84v1.84h-1.84zM49.20 118.12h1.84v1.84h-1.84zM56.55 118.12h1.84v1.84h-1.84zM60.22 118.12h1.84v1.84h-1.84zM63.90 118.12h1.84v1.84h-1.84zM65.73 118.12h1.84v1.84h-1.84zM71.24 118.12h1.84v1.84h-1.84zM76.76 118.12h1.84v1.84h-1.84zM80.43 118.12h1.84v1.84h-1.84zM84.10 118.12h1.84v1.84h-1.84zM89.61 118.12h1.84v1.84h-1.84zM91.45 118.12h1.84v1.84h-1.84zM93.29 118.12h1.84v1.84h-1.84zM95.12 118.12h1.84v1.84h-1.84zM96.96 118.12h1.84v1.84h-1.84zM98.80 118.12h1.84v1.84h-1.84zM100.63 118.12h1.84v1.84h-1.84zM102.47 118.12h1.84v1.84h-1.84zM104.31 118.12h1.84v1.84h-1.84zM106.14 118.12h1.84v1.84h-1.84zM51.04 119.96h1.84v1.84h-1.84zM54.71 119.96h1.84v1.84h-1.84zM60.22 119.96h1.84v1.84h-1.84zM69.41 119.96h1.84v1.84h-1.84zM71.24 119.96h1.84v1.84h-1.84zM73.08 119.96h1.84v1.84h-1.84zM74.92 119.96h1.84v1.84h-1.84zM78.59 119.96h1.84v1.84h-1.84zM82.27 119.96h1.84v1.84h-1.84zM85.94 119.96h1.84v1.84h-1.84zM95.12 119.96h1.84v1.84h-1.84zM102.47 119.96h1.84v1.84h-1.84zM106.14 119.96h1.84v1.84h-1.84zM36.35 121.80h1.84v1.84h-1.84zM38.18 121.80h1.84v1.84h-1.84zM40.02 121.80h1.84v1.84h-1.84zM41.86 121.80h1.84v1.84h-1.84zM43.69 121.80h1.84v1.84h-1.84zM45.53 121.80h1.84v1.84h-1.84zM47.37 121.80h1.84v1.84h-1.84zM52.88 121.80h1.84v1.84h-1.84zM54.71 121.80h1.84v1.84h-1.84zM58.39 121.80h1.84v1.84h-1.84zM67.57 121.80h1.84v1.84h-1.84zM69.41 121.80h1.84v1.84h-1.84zM71.24 121.80h1.84v1.84h-1.84zM73.08 121.80h1.84v1.84h-1.84zM76.76 121.80h1.84v1.84h-1.84zM78.59 121.80h1.84v1.84h-1.84zM82.27 121.80h1.84v1.84h-1.84zM85.94 121.80h1.84v1.84h-1.84zM87.78 121.80h1.84v1.84h-1.84zM89.61 121.80h1.84v1.84h-1.84zM91.45 121.80h1.84v1.84h-1.84zM93.29 121.80h1.84v1.84h-1.84zM95.12 121.80h1.84v1.84h-1.84zM98.80 121.80h1.84v1.84h-1.84zM102.47 121.80h1.84v1.84h-1.84zM107.98 121.80h1.84v1.84h-1.84zM36.35 123.63h1.84v1.84h-1.84zM47.37 123.63h1.84v1.84h-1.84zM51.04 123.63h1.84v1.84h-1.84zM52.88 123.63h1.84v1.84h-1.84zM54.71 123.63h1.84v1.84h-1.84zM63.90 123.63h1.84v1.84h-1.84zM67.57 123.63h1.84v1.84h-1.84zM69.41 123.63h1.84v1.84h-1.84zM76.76 123.63h1.84v1.84h-1.84zM82.27 123.63h1.84v1.84h-1.84zM85.94 123.63h1.84v1.84h-1.84zM89.61 123.63h1.84v1.84h-1.84zM93.29 123.63h1.84v1.84h-1.84zM95.12 123.63h1.84v1.84h-1.84zM102.47 123.63h1.84v1.84h-1.84zM104.31 123.63h1.84v1.84h-1.84zM109.82 123.63h1.84v1.84h-1.84zM36.35 125.47h1.84v1.84h-1.84zM40.02 125.47h1.84v1.84h-1.84zM41.86 125.47h1.84v1.84h-1.84zM43.69 125.47h1.84v1.84h-1.84zM47.37 125.47h1.84v1.84h-1.84zM51.04 125.47h1.84v1.84h-1.84zM52.88 125.47h1.84v1.84h-1.84zM62.06 125.47h1.84v1.84h-1.84zM63.90 125.47h1.84v1.84h-1.84zM71.24 125.47h1.84v1.84h-1.84zM76.76 125.47h1.84v1.84h-1.84zM78.59 125.47h1.84v1.84h-1.84zM80.43 125.47h1.84v1.84h-1.84zM82.27 125.47h1.84v1.84h-1.84zM89.61 125.47h1.84v1.84h-1.84zM91.45 125.47h1.84v1.84h-1.84zM93.29 125.47h1.84v1.84h-1.84zM95.12 125.47h1.84v1.84h-1.84zM96.96 125.47h1.84v1.84h-1.84zM98.80 125.47h1.84v1.84h-1.84zM100.63 125.47h1.84v1.84h-1.84zM102.47 125.47h1.84v1.84h-1.84zM104.31 125.47h1.84v1.84h-1.84zM36.35 127.31h1.84v1.84h-1.84zM40.02 127.31h1.84v1.84h-1.84zM41.86 127.31h1.84v1.84h-1.84zM43.69 127.31h1.84v1.84h-1.84zM47.37 127.31h1.84v1.84h-1.84zM51.04 127.31h1.84v1.84h-1.84zM52.88 127.31h1.84v1.84h-1.84zM54.71 127.31h1.84v1.84h-1.84zM58.39 127.31h1.84v1.84h-1.84zM62.06 127.31h1.84v1.84h-1.84zM63.90 127.31h1.84v1.84h-1.84zM65.73 127.31h1.84v1.84h-1.84zM67.57 127.31h1.84v1.84h-1.84zM69.41 127.31h1.84v1.84h-1.84zM73.08 127.31h1.84v1.84h-1.84zM74.92 127.31h1.84v1.84h-1.84zM76.76 127.31h1.84v1.84h-1.84zM78.59 127.31h1.84v1.84h-1.84zM80.43 127.31h1.84v1.84h-1.84zM82.27 127.31h1.84v1.84h-1.84zM84.10 127.31h1.84v1.84h-1.84zM85.94 127.31h1.84v1.84h-1.84zM87.78 127.31h1.84v1.84h-1.84zM89.61 127.31h1.84v1.84h-1.84zM100.63 127.31h1.84v1.84h-1.84zM104.31 127.31h1.84v1.84h-1.84zM106.14 127.31h1.84v1.84h-1.84zM107.98 127.31h1.84v1.84h-1.84zM109.82 127.31h1.84v1.84h-1.84zM36.35 129.14h1.84v1.84h-1.84zM40.02 129.14h1.84v1.84h-1.84zM41.86 129.14h1.84v1.84h-1.84zM43.69 129.14h1.84v1.84h-1.84zM47.37 129.14h1.84v1.84h-1.84zM54.71 129.14h1.84v1.84h-1.84zM56.55 129.14h1.84v1.84h-1.84zM58.39 129.14h1.84v1.84h-1.84zM60.22 129.14h1.84v1.84h-1.84zM63.90 129.14h1.84v1.84h-1.84zM67.57 129.14h1.84v1.84h-1.84zM71.24 129.14h1.84v1.84h-1.84zM80.43 129.14h1.84v1.84h-1.84zM85.94 129.14h1.84v1.84h-1.84zM93.29 129.14h1.84v1.84h-1.84zM96.96 129.14h1.84v1.84h-1.84zM100.63 129.14h1.84v1.84h-1.84zM102.47 129.14h1.84v1.84h-1.84zM106.14 129.14h1.84v1.84h-1.84zM107.98 129.14h1.84v1.84h-1.84zM109.82 129.14h1.84v1.84h-1.84zM36.35 130.98h1.84v1.84h-1.84zM47.37 130.98h1.84v1.84h-1.84zM51.04 130.98h1.84v1.84h-1.84zM54.71 130.98h1.84v1.84h-1.84zM63.90 130.98h1.84v1.84h-1.84zM65.73 130.98h1.84v1.84h-1.84zM69.41 130.98h1.84v1.84h-1.84zM71.24 130.98h1.84v1.84h-1.84zM74.92 130.98h1.84v1.84h-1.84zM78.59 130.98h1.84v1.84h-1.84zM80.43 130.98h1.84v1.84h-1.84zM87.78 130.98h1.84v1.84h-1.84zM91.45 130.98h1.84v1.84h-1.84zM96.96 130.98h1.84v1.84h-1.84zM98.80 130.98h1.84v1.84h-1.84zM102.47 130.98h1.84v1.84h-1.84zM104.31 130.98h1.84v1.84h-1.84zM106.14 130.98h1.84v1.84h-1.84zM109.82 130.98h1.84v1.84h-1.84zM36.35 132.82h1.84v1.84h-1.84zM38.18 132.82h1.84v1.84h-1.84zM40.02 132.82h1.84v1.84h-1.84zM41.86 132.82h1.84v1.84h-1.84zM43.69 132.82h1.84v1.84h-1.84zM45.53 132.82h1.84v1.84h-1.84zM47.37 132.82h1.84v1.84h-1.84zM58.39 132.82h1.84v1.84h-1.84zM62.06 132.82h1.84v1.84h-1.84zM65.73 132.82h1.84v1.84h-1.84zM67.57 132.82h1.84v1.84h-1.84zM69.41 132.82h1.84v1.84h-1.84zM71.24 132.82h1.84v1.84h-1.84zM74.92 132.82h1.84v1.84h-1.84zM76.76 132.82h1.84v1.84h-1.84zM78.59 132.82h1.84v1.84h-1.84zM80.43 132.82h1.84v1.84h-1.84zM82.27 132.82h1.84v1.84h-1.84zM87.78 132.82h1.84v1.84h-1.84zM93.29 132.82h1.84v1.84h-1.84zM95.12 132.82h1.84v1.84h-1.84zM96.96 132.82h1.84v1.84h-1.84zM102.47 132.82h1.84v1.84h-1.84z" fill="#000000"/>

  <text x="74" y="160" text-anchor="middle" font-family="Helvetica, Arial, sans-serif" font-size="7.5" font-weight="bold" fill="#f7efe6">Mira la carta en tu móvil</text>
  <text x="74" y="171" text-anchor="middle" font-family="Helvetica, Arial, sans-serif" font-size="5" fill="#f7efe6" opacity="0.65">Apunta con la cámara del móvil. No hace falta instalar nada.</text>
  <text x="74" y="190" text-anchor="middle" font-family="Helvetica, Arial, sans-serif" font-size="4.6" fill="#f7efe6" opacity="0.5">Calle Jerónimo Ibrán, 11 · 33600 Mieres (Asturias)</text>
</svg>